<svg width="15" height="16" viewBox="0 0 15 16" fill="none" xmlns="http://www.w3.org/2000/svg">
<path d="M13.1665 9H8.1665V14C8.1665 14.2652 8.06115 14.5196 7.87361 14.7071C7.68608 14.8946 7.43172 15 7.1665 15C6.90129 15 6.64693 14.8946 6.4594 14.7071C6.27186 14.5196 6.1665 14.2652 6.1665 14V9H1.1665C0.901287 9 0.646934 8.89464 0.459397 8.70711C0.271861 8.51957 0.166504 8.26522 0.166504 8C0.166504 7.73478 0.271861 7.48043 0.459397 7.29289C0.646934 7.10536 0.901287 7 1.1665 7H6.1665V2C6.1665 1.73478 6.27186 1.48043 6.4594 1.29289C6.64693 1.10536 6.90129 1 7.1665 1C7.43172 1 7.68608 1.10536 7.87361 1.29289C8.06115 1.48043 8.1665 1.73478 8.1665 2V7H13.1665C13.4317 7 13.6861 7.10536 13.8736 7.29289C14.0611 7.48043 14.1665 7.73478 14.1665 8C14.1665 8.26522 14.0611 8.51957 13.8736 8.70711C13.6861 8.89464 13.4317 9 13.1665 9Z" fill="white"/>
</svg>
