<svg width="29" height="29" viewBox="0 0 29 29" fill="none" xmlns="http://www.w3.org/2000/svg">
<path d="M0.5 0.956055H28.4632V28.9193H0.5V0.956055Z" fill="white" fill-opacity="0.01"/>
<path d="M20.3073 4.45166H8.6559C6.08195 4.45166 3.99536 6.53825 3.99536 9.1122V20.7635C3.99536 23.3375 6.08195 25.4241 8.6559 25.4241H20.3073C22.8812 25.4241 24.9678 23.3375 24.9678 20.7635V9.1122C24.9678 6.53825 22.8812 4.45166 20.3073 4.45166Z" fill="#403230" stroke="#403230" stroke-width="4" stroke-linejoin="round"/>
<path d="M14.4816 19.5984C17.0555 19.5984 19.1421 17.5118 19.1421 14.9379C19.1421 12.3639 17.0555 10.2773 14.4816 10.2773C11.9076 10.2773 9.82104 12.3639 9.82104 14.9379C9.82104 17.5118 11.9076 19.5984 14.4816 19.5984Z" fill="#403230" stroke="white" stroke-width="4" stroke-linejoin="round"/>
<path d="M20.8897 9.69453C21.5332 9.69453 22.0549 9.1729 22.0549 8.52939C22.0549 7.88589 21.5332 7.36426 20.8897 7.36426C20.2462 7.36426 19.7246 7.88589 19.7246 8.52939C19.7246 9.1729 20.2462 9.69453 20.8897 9.69453Z" fill="white"/>
</svg>
