<svg width="25" height="24" viewBox="0 0 25 24" fill="none" xmlns="http://www.w3.org/2000/svg">
<path d="M0.600098 4.61558C0.600098 3.39146 1.08638 2.21746 1.95197 1.35187C2.81756 0.486283 3.99155 0 5.21568 0H18.1393C19.3635 0 20.5374 0.486283 21.403 1.35187C22.2686 2.21746 22.7549 3.39146 22.7549 4.61558V8.05327C22.172 7.76758 21.5497 7.57033 20.9087 7.46802V4.61558C20.9087 3.88111 20.6169 3.17671 20.0976 2.65736C19.5782 2.138 18.8738 1.84623 18.1393 1.84623H12.6006V7.38493C11.9766 7.39786 11.3544 7.49571 10.7544 7.68587V7.38493H2.44633V17.5392C2.44633 18.2737 2.7381 18.9781 3.25746 19.4974C3.77681 20.0168 4.48121 20.3086 5.21568 20.3086H9.68357L11.515 22.1548H5.21568C3.99155 22.1548 2.81756 21.6685 1.95197 20.8029C1.08638 19.9373 0.600098 18.7633 0.600098 17.5392V4.61558ZM5.21568 1.84623C4.48121 1.84623 3.77681 2.138 3.25746 2.65736C2.7381 3.17671 2.44633 3.88111 2.44633 4.61558V5.5387H10.7544V1.84623H5.21568ZM20.9087 9.34748C21.7841 9.54513 22.5844 9.98982 23.2146 10.6288C24.1023 11.5267 24.6001 12.7383 24.6001 14.0009C24.6001 15.2635 24.1023 16.4752 23.2146 17.3731L16.8802 23.7555C16.8033 23.833 16.7118 23.8945 16.6111 23.9364C16.5103 23.9784 16.4022 24 16.2931 24C16.1839 24 16.0759 23.9784 15.9751 23.9364C15.8743 23.8945 15.7829 23.833 15.706 23.7555L9.36971 17.3731C8.48162 16.4754 7.98348 15.2636 7.98348 14.0009C7.98348 12.7382 8.48162 11.5264 9.36971 10.6288C10.2263 9.76393 11.3838 9.26324 12.6006 9.23117C13.243 9.21471 13.8819 9.33007 14.4779 9.57013C15.0739 9.81019 15.6144 10.1699 16.066 10.6269L16.2931 10.854L16.5202 10.6269C17.0828 10.0585 17.7809 9.64268 18.5487 9.41883C19.3165 9.19498 20.1287 9.17042 20.9087 9.34748Z" fill="#DADADA"/>
</svg>
