<svg width="25" height="24" viewBox="0 0 25 24" fill="none" xmlns="http://www.w3.org/2000/svg">
<path d="M0.600098 4.61412C0.600098 3.38999 1.08638 2.216 1.95197 1.35041C2.81756 0.484819 3.99155 -0.00146484 5.21568 -0.00146484H18.1393C19.3635 -0.00146484 20.5374 0.484819 21.403 1.35041C22.2686 2.216 22.7549 3.38999 22.7549 4.61412V8.05181C22.172 7.76611 21.5497 7.56886 20.9087 7.46655V4.61412C20.9087 3.87964 20.6169 3.17525 20.0976 2.65589C19.5782 2.13654 18.8738 1.84477 18.1393 1.84477H12.6006V7.38347C11.9766 7.39639 11.3544 7.49424 10.7544 7.68441V7.38347H2.44633V17.5378C2.44633 18.2722 2.7381 18.9766 3.25746 19.496C3.77681 20.0153 4.48121 20.3071 5.21568 20.3071H9.68357L11.515 22.1533H5.21568C3.99155 22.1533 2.81756 21.6671 1.95197 20.8015C1.08638 19.9359 0.600098 18.7619 0.600098 17.5378V4.61412ZM5.21568 1.84477C4.48121 1.84477 3.77681 2.13654 3.25746 2.65589C2.7381 3.17525 2.44633 3.87964 2.44633 4.61412V5.53724H10.7544V1.84477H5.21568ZM20.9087 9.34602C21.7841 9.54366 22.5844 9.98835 23.2146 10.6273C24.1023 11.5252 24.6001 12.7369 24.6001 13.9994C24.6001 15.262 24.1023 16.4737 23.2146 17.3716L16.8802 23.754C16.8033 23.8315 16.7118 23.893 16.6111 23.935C16.5103 23.9769 16.4022 23.9985 16.2931 23.9985C16.1839 23.9985 16.0759 23.9769 15.9751 23.935C15.8743 23.893 15.7829 23.8315 15.706 23.754L9.36971 17.3716C8.48162 16.4739 7.98348 15.2622 7.98348 13.9994C7.98348 12.7367 8.48162 11.525 9.36971 10.6273C10.2263 9.76246 11.3838 9.26178 12.6006 9.2297C13.243 9.21325 13.8819 9.32861 14.4779 9.56867C15.0739 9.80873 15.6144 10.1684 16.066 10.6255L16.2931 10.8525L16.5202 10.6255C17.0828 10.057 17.7809 9.64122 18.5487 9.41736C19.3165 9.19351 20.1287 9.16896 20.9087 9.34602Z" fill="#FFCF88"/>
</svg>
