<svg width="16" height="17" viewBox="0 0 16 17" fill="none" xmlns="http://www.w3.org/2000/svg">
<path d="M14 12.9408H15.3333V14.2742H0.666672V12.9408H2.00001V2.94084C2.00001 2.76403 2.07024 2.59446 2.19527 2.46943C2.32029 2.34441 2.48986 2.27417 2.66667 2.27417H9.33334C9.51015 2.27417 9.67972 2.34441 9.80474 2.46943C9.92977 2.59446 10 2.76403 10 2.94084V12.9408H11.3333V6.27417H13.3333C13.5101 6.27417 13.6797 6.34441 13.8047 6.46943C13.9298 6.59446 14 6.76403 14 6.94084V12.9408ZM4.66667 7.6075V8.94084H7.33334V7.6075H4.66667ZM4.66667 4.94084V6.27417H7.33334V4.94084H4.66667Z" fill="#403230"/>
</svg>
