<svg width="19" height="21" viewBox="0 0 19 21" fill="none" xmlns="http://www.w3.org/2000/svg">
<path d="M16.75 18.3722H2.75V7.37219H16.75M13.75 0.372192V2.37219H5.75V0.372192H3.75V2.37219H2.75C1.64 2.37219 0.75 3.26219 0.75 4.37219V18.3722C0.75 18.9026 0.960714 19.4113 1.33579 19.7864C1.71086 20.1615 2.21957 20.3722 2.75 20.3722H16.75C17.2804 20.3722 17.7891 20.1615 18.1642 19.7864C18.5393 19.4113 18.75 18.9026 18.75 18.3722V4.37219C18.75 3.84176 18.5393 3.33305 18.1642 2.95798C17.7891 2.58291 17.2804 2.37219 16.75 2.37219H15.75V0.372192M14.75 11.3722H9.75V16.3722H14.75V11.3722Z" fill="#403230"/>
</svg>
