<svg width="25" height="26" viewBox="0 0 25 26" fill="none" xmlns="http://www.w3.org/2000/svg">
<path d="M24.1136 12.4453C23.8712 11.8353 23.3516 11.689 23 11.654V7.93652C23 6.55777 21.9236 5.43652 20.6 5.43652H13.4V3.69902C13.766 3.35652 14 2.86402 14 2.31152C14 1.81424 13.8103 1.33733 13.4728 0.985698C13.1352 0.634068 12.6774 0.436523 12.2 0.436523C11.7226 0.436523 11.2648 0.634068 10.9272 0.985698C10.5896 1.33733 10.4 1.81424 10.4 2.31152C10.4 2.86402 10.634 3.35652 11 3.69902V5.43652H3.79999C2.47639 5.43652 1.39999 6.55777 1.39999 7.93652V11.6828L1.30159 11.6903C0.999156 11.713 0.7162 11.8542 0.509609 12.0854C0.303019 12.3166 0.188111 12.6207 0.187988 12.9365V15.4365C0.187988 15.768 0.314416 16.086 0.53946 16.3204C0.764504 16.5548 1.06973 16.6865 1.38799 16.6865H1.39999V22.9365C1.39999 24.3153 2.47639 25.4365 3.79999 25.4365H20.6C21.9236 25.4365 23 24.3153 23 22.9365V16.6865C23.3182 16.6865 23.6235 16.5548 23.8485 16.3204C24.0736 16.086 24.2 15.768 24.2 15.4365V13.014C24.2141 12.82 24.1845 12.6253 24.1136 12.4453ZM3.79999 22.9365V7.93652H20.6L20.6012 12.9315L20.6 12.9365V15.4365L20.6012 15.4428L20.6024 22.9365H3.79999Z" fill="white"/>
<path d="M7.99995 15.4365C8.99406 15.4365 9.79995 14.3172 9.79995 12.9365C9.79995 11.5558 8.99406 10.4365 7.99995 10.4365C7.00584 10.4365 6.19995 11.5558 6.19995 12.9365C6.19995 14.3172 7.00584 15.4365 7.99995 15.4365Z" fill="white"/>
<path d="M16.4001 15.4365C17.3942 15.4365 18.2001 14.3172 18.2001 12.9365C18.2001 11.5558 17.3942 10.4365 16.4001 10.4365C15.406 10.4365 14.6001 11.5558 14.6001 12.9365C14.6001 14.3172 15.406 15.4365 16.4001 15.4365Z" fill="white"/>
<path d="M7.3999 17.9365H16.9999V20.4365H7.3999V17.9365Z" fill="white"/>
</svg>
