<svg width="25" height="24" viewBox="0 0 25 24" fill="none" xmlns="http://www.w3.org/2000/svg">
<g clip-path="url(#clip0_56_5742)">
<path d="M9.28328 16.1236L5.8519 12.6922C5.667 12.5074 5.41623 12.4035 5.15475 12.4035C4.89326 12.4035 4.64249 12.5074 4.45759 12.6922C4.2727 12.8771 4.16882 13.1279 4.16882 13.3894C4.16882 13.5189 4.19433 13.6471 4.24387 13.7667C4.29342 13.8863 4.36604 13.995 4.45759 14.0866L8.59107 18.22C8.97673 18.6057 9.59972 18.6057 9.98538 18.22L20.4476 7.75778C20.6325 7.57289 20.7364 7.32211 20.7364 7.06063C20.7364 6.79915 20.6325 6.54837 20.4476 6.36348C20.2627 6.17858 20.012 6.07471 19.7505 6.07471C19.489 6.07471 19.2382 6.17858 19.0533 6.36348L9.28328 16.1236Z" fill="#403230"/>
<path d="M8.92476 15.8319L5.49338 12.4005C5.30848 12.2156 5.05771 12.1117 4.79623 12.1117C4.53474 12.1117 4.28397 12.2156 4.09907 12.4005C3.91418 12.5854 3.8103 12.8362 3.8103 13.0977C3.8103 13.2271 3.8358 13.3553 3.88535 13.4749C3.9349 13.5946 4.00752 13.7033 4.09907 13.7948L8.23255 17.9283C8.61821 18.3139 9.2412 18.3139 9.62686 17.9283L20.0891 7.46604C20.274 7.28114 20.3779 7.03037 20.3779 6.76888C20.3779 6.5074 20.274 6.25663 20.0891 6.07173C19.9042 5.88683 19.6534 5.78296 19.392 5.78296C19.1305 5.78296 18.8797 5.88683 18.6948 6.07173L8.92476 15.8319Z" fill="#403230"/>
</g>
<defs>
<clipPath id="clip0_56_5742">
<rect width="23.7329" height="23.7329" fill="white" transform="translate(0.383423 0.133545)"/>
</clipPath>
</defs>
</svg>
