<svg width="25" height="25" viewBox="0 0 25 25" fill="none" xmlns="http://www.w3.org/2000/svg">
<g clip-path="url(#clip0_56_5663)">
<path d="M9.28313 16.4154L5.85175 12.984C5.66685 12.7991 5.41608 12.6952 5.15459 12.6952C4.89311 12.6952 4.64234 12.7991 4.45744 12.984C4.27254 13.1689 4.16867 13.4197 4.16867 13.6811C4.16867 13.8106 4.19417 13.9388 4.24372 14.0584C4.29327 14.1781 4.36589 14.2868 4.45744 14.3783L8.59092 18.5118C8.97658 18.8974 9.59957 18.8974 9.98523 18.5118L20.4475 8.04953C20.6324 7.86464 20.7362 7.61386 20.7362 7.35238C20.7362 7.0909 20.6324 6.84012 20.4475 6.65523C20.2626 6.47033 20.0118 6.36646 19.7503 6.36646C19.4888 6.36646 19.2381 6.47033 19.0532 6.65523L9.28313 16.4154Z" fill="white"/>
<path d="M8.92461 16.1236L5.49323 12.6922C5.30833 12.5074 5.05756 12.4035 4.79607 12.4035C4.53459 12.4035 4.28382 12.5074 4.09892 12.6922C3.91402 12.8771 3.81015 13.1279 3.81015 13.3894C3.81015 13.5189 3.83565 13.6471 3.8852 13.7667C3.93475 13.8863 4.00737 13.995 4.09892 14.0866L8.2324 18.22C8.61806 18.6057 9.24105 18.6057 9.62671 18.22L20.089 7.75778C20.2739 7.57289 20.3777 7.32211 20.3777 7.06063C20.3777 6.79915 20.2739 6.54837 20.089 6.36348C19.9041 6.17858 19.6533 6.07471 19.3918 6.07471C19.1303 6.07471 18.8795 6.17858 18.6946 6.36348L8.92461 16.1236Z" fill="white"/>
</g>
<defs>
<clipPath id="clip0_56_5663">
<rect width="23.7329" height="23.7329" fill="white" transform="translate(0.383301 0.425293)"/>
</clipPath>
</defs>
</svg>
