<svg width="101" height="101" viewBox="0 0 101 101" fill="none" xmlns="http://www.w3.org/2000/svg">
<path d="M45.8646 24.4776C34.7229 24.4776 25.5271 32.8109 24.1646 43.5776L23.9188 45.5109L22.0729 46.1401C18.5752 47.3399 15.616 49.7407 13.721 52.916C11.8259 56.0914 11.1178 59.8356 11.7224 63.4837C12.327 67.1317 14.2052 70.4474 17.0232 72.8416C19.8413 75.2358 23.4168 76.5536 27.1146 76.5609H72.9479C75.0815 76.556 77.1915 76.1141 79.1478 75.2626C81.1041 74.411 82.8653 73.1679 84.3228 71.6097C85.7803 70.0515 86.9032 68.2113 87.6224 66.2025C88.3416 64.1938 88.6417 62.059 88.5043 59.9299C88.3669 57.8007 87.7949 55.7222 86.8236 53.8225C85.8522 51.9229 84.5021 50.2422 82.8565 48.8843C81.2108 47.5263 79.3044 46.5198 77.2549 45.9267C75.2054 45.3337 73.0561 45.1666 70.9396 45.4359L67.9396 45.8234L67.4604 42.8359C66.6256 37.7105 63.9946 33.0493 60.0381 29.6859C56.0816 26.3225 51.0575 24.4763 45.8646 24.4776ZM18.2646 40.9276C19.4945 34.6963 22.7968 29.0646 27.6341 24.9487C32.4715 20.8327 38.5593 18.4748 44.9071 18.2584C51.2549 18.042 57.4891 19.98 62.5955 23.7571C67.7019 27.5341 71.3799 32.9279 73.0313 39.0609C78.8329 39.0725 84.3923 41.3883 88.4864 45.4989C92.5806 49.6095 94.8741 55.1781 94.8625 60.9797C94.8509 66.7813 92.5351 72.3407 88.4245 76.4348C84.314 80.529 78.7454 82.8225 72.9438 82.8109H27.1104C22.0932 82.8118 17.2281 81.0879 13.3307 77.9282C9.43335 74.7686 6.74058 70.3652 5.7038 65.4562C4.66702 60.5473 5.34924 55.4311 7.6361 50.9653C9.92296 46.4995 13.6755 42.9556 18.2646 40.9276Z" fill="#B1B1B1"/>
</svg>
