<svg width="22" height="20" viewBox="0 0 22 20" fill="none" xmlns="http://www.w3.org/2000/svg">
<path d="M20.3597 0.160645H2.52516C2.09516 0.160645 1.68277 0.331462 1.37871 0.635519C1.07466 0.939576 0.903838 1.35197 0.903838 1.78197V17.9952C0.901968 18.3044 0.98943 18.6075 1.15571 18.8682C1.32199 19.1288 1.56001 19.3359 1.84117 19.4645C2.05541 19.5643 2.28883 19.6162 2.52516 19.6165C2.90576 19.6155 3.27371 19.4798 3.56382 19.2335L3.57294 19.2264L6.88247 16.3739H20.3597C20.7897 16.3739 21.2021 16.2031 21.5062 15.899C21.8102 15.5949 21.981 15.1826 21.981 14.7526V1.78197C21.981 1.35197 21.8102 0.939576 21.5062 0.635519C21.2021 0.331462 20.7897 0.160645 20.3597 0.160645ZM20.3597 14.7526H6.57847C6.38382 14.7527 6.1957 14.8228 6.0485 14.9502L2.52516 17.9952V1.78197H20.3597V14.7526Z" fill="#403230"/>
</svg>
