<svg width="36" height="27" viewBox="0 0 36 27" fill="none" xmlns="http://www.w3.org/2000/svg">
<path d="M33.3033 16.0474C32.9336 15.7625 32.5099 15.5559 32.0578 15.44C31.6057 15.3241 31.1348 15.3015 30.6736 15.3734C33.3273 12.6943 34.6697 10.0307 34.6697 7.41943C34.6697 3.67912 31.6613 0.636851 27.9634 0.636851C26.9822 0.63069 26.0116 0.839374 25.1196 1.24825C24.2276 1.65714 23.436 2.2563 22.8002 3.00369C22.1644 2.2563 21.3728 1.65714 20.4808 1.24825C19.5888 0.839374 18.6182 0.63069 17.637 0.636851C13.939 0.636851 10.9307 3.67912 10.9307 7.41943C10.9307 8.97377 11.3885 10.4843 12.3522 12.0824C11.5629 12.2824 10.8426 12.6926 10.268 13.2694L7.07169 16.4629H3.01769C2.41808 16.4629 1.84302 16.7011 1.41903 17.125C0.995033 17.549 0.756836 18.1241 0.756836 18.7237L0.756836 24.3759C0.756836 24.9755 0.995033 25.5505 1.41903 25.9745C1.84302 26.3985 2.41808 26.6367 3.01769 26.6367H17.7133C17.8057 26.6367 17.8978 26.6253 17.9874 26.6028L27.0308 24.3419C27.0885 24.3282 27.1447 24.3093 27.199 24.2854L32.6915 21.9483L32.7536 21.92C33.2815 21.6562 33.7335 21.2624 34.0671 20.7757C34.4007 20.2889 34.6049 19.7253 34.6605 19.1378C34.716 18.5503 34.6211 17.9583 34.3847 17.4177C34.1482 16.877 33.778 16.4055 33.3089 16.0474H33.3033ZM17.637 2.89771C18.5125 2.8849 19.372 3.13351 20.1054 3.61176C20.8389 4.09001 21.4131 4.77616 21.7546 5.58248C21.8397 5.78981 21.9846 5.96714 22.1708 6.09195C22.357 6.21675 22.5761 6.28338 22.8002 6.28338C23.0243 6.28338 23.2434 6.21675 23.4296 6.09195C23.6158 5.96714 23.7607 5.78981 23.8458 5.58248C24.1873 4.77616 24.7615 4.09001 25.495 3.61176C26.2284 3.13351 27.0879 2.8849 27.9634 2.89771C30.3727 2.89771 32.4088 4.96781 32.4088 7.41943C32.4088 10.1763 30.1777 13.2948 25.9569 16.4487L24.3899 16.8091C24.5274 16.228 24.5317 15.6234 24.4023 15.0404C24.2729 14.4575 24.0133 13.9114 23.6429 13.4431C23.2724 12.9748 22.8008 12.5964 22.2633 12.3363C21.7258 12.0762 21.1365 11.9411 20.5393 11.9411H14.9833C13.7638 10.2964 13.1916 8.84942 13.1916 7.41943C13.1916 4.96781 15.2277 2.89771 17.637 2.89771ZM3.01769 18.7237H6.40898V24.3759H3.01769V18.7237ZM31.7631 19.8838L26.3935 22.1701L17.572 24.3759H8.66984V18.061L11.8675 14.8647C12.0767 14.6539 12.3257 14.4867 12.6001 14.3729C12.8744 14.2592 13.1687 14.2011 13.4657 14.202H20.5393C20.9891 14.202 21.4203 14.3806 21.7383 14.6986C22.0563 15.0166 22.235 15.4479 22.235 15.8976C22.235 16.3474 22.0563 16.7786 21.7383 17.0966C21.4203 17.4146 20.9891 17.5933 20.5393 17.5933H16.5828C16.283 17.5933 15.9955 17.7124 15.7835 17.9244C15.5715 18.1364 15.4524 18.4239 15.4524 18.7237C15.4524 19.0235 15.5715 19.3111 15.7835 19.5231C15.9955 19.735 16.283 19.8541 16.5828 19.8541H21.1046C21.1896 19.8539 21.2745 19.8444 21.3575 19.8259L30.8248 17.6484L30.8686 17.6371C31.1576 17.5569 31.4661 17.5863 31.7347 17.7199C32.0033 17.8534 32.213 18.0815 32.3235 18.3604C32.4339 18.6392 32.4374 18.9491 32.3332 19.2303C32.2289 19.5116 32.0244 19.7443 31.7588 19.8838H31.7631Z" fill="#403230"/>
</svg>
