<svg width="21" height="21" viewBox="0 0 21 21" fill="none" xmlns="http://www.w3.org/2000/svg">
<path d="M9.875 5.11865C10.4805 5.11865 11.0469 5.23258 11.5742 5.46045C12.1016 5.68831 12.5671 6.00081 12.9707 6.39795C13.3743 6.79508 13.6868 7.25732 13.9082 7.78467C14.1296 8.31201 14.2435 8.88167 14.25 9.49365C14.25 10.0991 14.1361 10.6655 13.9082 11.1929C13.6803 11.7202 13.3678 12.1857 12.9707 12.5894C12.5736 12.993 12.1113 13.3055 11.584 13.5269C11.0566 13.7482 10.487 13.8621 9.875 13.8687C9.26953 13.8687 8.70312 13.7547 8.17578 13.5269C7.64844 13.299 7.18294 12.9865 6.7793 12.5894C6.37565 12.1922 6.06315 11.73 5.8418 11.2026C5.62044 10.6753 5.50651 10.1056 5.5 9.49365C5.5 8.88818 5.61393 8.32178 5.8418 7.79443C6.06966 7.26709 6.38216 6.8016 6.7793 6.39795C7.17643 5.9943 7.63867 5.6818 8.16602 5.46045C8.69336 5.2391 9.26302 5.12516 9.875 5.11865ZM9.875 12.6187C10.3047 12.6187 10.7083 12.5373 11.0859 12.3745C11.4635 12.2118 11.7923 11.9904 12.0723 11.7104C12.3522 11.4305 12.5768 11.0985 12.7461 10.7144C12.9154 10.3302 13 9.92334 13 9.49365C13 9.06396 12.9186 8.66032 12.7559 8.28271C12.5931 7.90511 12.3685 7.57633 12.082 7.29639C11.7956 7.01644 11.4635 6.79183 11.0859 6.62256C10.7083 6.45329 10.3047 6.36865 9.875 6.36865C9.44531 6.36865 9.04167 6.45003 8.66406 6.61279C8.28646 6.77555 7.95443 7.00016 7.66797 7.28662C7.38151 7.57308 7.1569 7.90511 6.99414 8.28271C6.83138 8.66032 6.75 9.06396 6.75 9.49365C6.75 9.92334 6.83138 10.327 6.99414 10.7046C7.1569 11.0822 7.37826 11.4142 7.6582 11.7007C7.93815 11.9871 8.27018 12.2118 8.6543 12.3745C9.03841 12.5373 9.44531 12.6187 9.875 12.6187ZM10.5 3.86865H9.25V0.118652H10.5V3.86865ZM9.25 15.1187H10.5V18.8687H9.25V15.1187ZM4.25 10.1187H0.5V8.86865H4.25V10.1187ZM5.45117 5.9585L2.80469 3.30225L3.68359 2.42334L6.33984 5.06982L5.45117 5.9585ZM16.9453 3.30225L14.2988 5.9585L13.4102 5.06982L16.0664 2.42334L16.9453 3.30225ZM5.45117 13.0288L6.33984 13.9175L3.68359 16.564L2.80469 15.6851L5.45117 13.0288ZM16.75 18.8687H18V20.1187H16.75V18.8687ZM17.375 11.3687C17.7201 11.3687 18.0423 11.4338 18.3418 11.564C18.6413 11.6942 18.9082 11.8732 19.1426 12.1011C19.377 12.3289 19.556 12.5926 19.6797 12.8921C19.8034 13.1916 19.8685 13.5171 19.875 13.8687C19.875 14.1681 19.8294 14.4318 19.7383 14.6597C19.6471 14.8875 19.5332 15.0926 19.3965 15.2749C19.2598 15.4572 19.1068 15.62 18.9375 15.7632C18.7682 15.9064 18.6185 16.0529 18.4883 16.2026C18.3581 16.3524 18.2409 16.4989 18.1367 16.6421C18.0326 16.7853 17.987 16.9546 18 17.1499V17.6187H16.75V17.1499C16.75 16.8439 16.7956 16.5802 16.8867 16.3589C16.9779 16.1375 17.0918 15.9325 17.2285 15.7437C17.3652 15.5549 17.5182 15.3921 17.6875 15.2554C17.8568 15.1187 18.0065 14.9722 18.1367 14.8159C18.2669 14.6597 18.3841 14.5132 18.4883 14.3765C18.5924 14.2397 18.638 14.0705 18.625 13.8687C18.625 13.6929 18.5924 13.5301 18.5273 13.3804C18.4622 13.2306 18.3743 13.1004 18.2637 12.9897C18.153 12.8791 18.0195 12.7879 17.8633 12.7163C17.707 12.6447 17.5443 12.6121 17.375 12.6187C17.1992 12.6187 17.0365 12.6512 16.8867 12.7163C16.737 12.7814 16.6068 12.8693 16.4961 12.98C16.3854 13.0907 16.2943 13.2241 16.2227 13.3804C16.151 13.5366 16.1185 13.6994 16.125 13.8687H14.875C14.875 13.5236 14.9401 13.2013 15.0703 12.9019C15.2005 12.6024 15.3796 12.3354 15.6074 12.1011C15.8353 11.8667 16.099 11.6877 16.3984 11.564C16.6979 11.4403 17.0234 11.3752 17.375 11.3687Z" fill="#403230"/>
</svg>
