<svg width="23" height="20" viewBox="0 0 23 20" fill="none" xmlns="http://www.w3.org/2000/svg">
<path d="M11.5001 3.15169L10.9366 3.69769C11.0096 3.77391 11.0972 3.83453 11.194 3.87594C11.2908 3.91735 11.3949 3.93869 11.5001 3.93869C11.6053 3.93869 11.7094 3.91735 11.8062 3.87594C11.9031 3.83453 11.9906 3.77391 12.0636 3.69769L11.5001 3.15169ZM8.81419 16.6148C7.23228 15.36 5.50324 14.1347 4.13106 12.5807C2.78706 11.0561 1.84793 9.27845 1.84793 6.97054H0.282715C0.282715 9.76985 1.44098 11.9055 2.96132 13.6265C4.4535 15.317 6.3568 16.6715 7.8448 17.8517L8.81419 16.6148ZM1.84793 6.97054C1.84793 4.71304 3.11576 2.81884 4.84689 2.02189C6.52898 1.24804 8.78915 1.45279 10.9366 3.69769L12.0636 2.60674C9.5175 -0.0571055 6.55819 -0.497056 4.19576 0.589694C1.8855 1.65334 0.282715 4.12294 0.282715 6.97054H1.84793ZM7.8448 17.8517C8.38011 18.2759 8.95402 18.7274 9.53524 19.0697C10.1165 19.4109 10.7801 19.6892 11.5001 19.6892V18.1142C11.1766 18.1142 10.7968 17.9882 10.3251 17.7099C9.85245 17.4327 9.36306 17.0505 8.81419 16.6148L7.8448 17.8517ZM15.1554 17.8517C16.6434 16.6704 18.5467 15.318 20.0389 13.6265C21.5592 11.9045 22.7175 9.76985 22.7175 6.97054H21.1523C21.1523 9.27845 20.2132 11.0561 18.8692 12.5807C17.497 14.1347 15.7679 15.36 14.186 16.6148L15.1554 17.8517ZM22.7175 6.97054C22.7175 4.12294 21.1158 1.65334 18.8045 0.589694C16.442 -0.497056 13.4848 -0.0571055 10.9366 2.60569L12.0636 3.69769C14.2111 1.45384 16.4712 1.24804 18.1533 2.02189C19.8845 2.81884 21.1523 4.71199 21.1523 6.97054H22.7175ZM14.186 16.6148C13.6371 17.0505 13.1478 17.4327 12.6751 17.7099C12.2034 17.9871 11.8236 18.1142 11.5001 18.1142V19.6892C12.2201 19.6892 12.8838 19.4109 13.465 19.0697C14.0472 18.7274 14.6201 18.2759 15.1554 17.8517L14.186 16.6148Z" fill="#C85A55"/>
</svg>
