<svg width="23" height="21" viewBox="0 0 23 21" fill="none" xmlns="http://www.w3.org/2000/svg">
<path d="M11.5001 3.51717L10.9366 4.06317C11.0096 4.13939 11.0972 4.20001 11.194 4.24142C11.2908 4.28283 11.3949 4.30417 11.5001 4.30417C11.6053 4.30417 11.7094 4.28283 11.8062 4.24142C11.9031 4.20001 11.9906 4.13939 12.0636 4.06317L11.5001 3.51717ZM8.81419 16.9803C7.23228 15.7255 5.50324 14.5002 4.13106 12.9462C2.78706 11.4216 1.84793 9.64392 1.84793 7.33602H0.282715C0.282715 10.1353 1.44098 12.271 2.96132 13.992C4.4535 15.6825 6.3568 17.037 7.8448 18.2172L8.81419 16.9803ZM1.84793 7.33602C1.84793 5.07852 3.11576 3.18432 4.84689 2.38737C6.52898 1.61352 8.78915 1.81827 10.9366 4.06317L12.0636 2.97222C9.5175 0.308373 6.55819 -0.131577 4.19576 0.955173C1.8855 2.01882 0.282715 4.48842 0.282715 7.33602H1.84793ZM7.8448 18.2172C8.38011 18.6414 8.95402 19.0929 9.53524 19.4352C10.1165 19.7764 10.7801 20.0547 11.5001 20.0547V18.4797C11.1766 18.4797 10.7968 18.3537 10.3251 18.0754C9.85245 17.7982 9.36306 17.416 8.81419 16.9803L7.8448 18.2172ZM15.1554 18.2172C16.6434 17.0359 18.5467 15.6835 20.0389 13.992C21.5592 12.27 22.7175 10.1353 22.7175 7.33602H21.1523C21.1523 9.64392 20.2131 11.4216 18.8691 12.9462C17.497 14.5002 15.7679 15.7255 14.186 16.9803L15.1554 18.2172ZM22.7175 7.33602C22.7175 4.48842 21.1158 2.01882 18.8045 0.955173C16.442 -0.131577 13.4848 0.308373 10.9366 2.97117L12.0636 4.06317C14.2111 1.81932 16.4712 1.61352 18.1533 2.38737C19.8845 3.18432 21.1523 5.07747 21.1523 7.33602H22.7175ZM14.186 16.9803C13.6371 17.416 13.1478 17.7982 12.6751 18.0754C12.2034 18.3526 11.8236 18.4797 11.5001 18.4797V20.0547C12.2201 20.0547 12.8838 19.7764 13.465 19.4352C14.0472 19.0929 14.6201 18.6414 15.1554 18.2172L14.186 16.9803Z" fill="#C85A55"/>
<ellipse cx="6.93066" cy="7.75842" rx="5.96387" ry="6.05896" fill="#C85A55"/>
<ellipse cx="15.8171" cy="7.75842" rx="5.96387" ry="6.05896" fill="#C85A55"/>
<rect x="4.198" y="11.5361" width="15.0166" height="3.27905" fill="#C85A55"/>
<rect x="5.86133" y="13.6746" width="11.4526" height="2.42358" fill="#C85A55"/>
<rect x="7.52466" y="15.5754" width="8.29248" height="1.61572" fill="#C85A55"/>
<rect x="8.61768" y="16.811" width="5.46484" height="1.28296" fill="#C85A55"/>
<rect x="9.23535" y="17.1912" width="4.22925" height="1.82129" fill="#C85A55"/>
</svg>
