<svg width="24" height="24" viewBox="0 0 24 24" fill="none" xmlns="http://www.w3.org/2000/svg">
<path d="M12.8481 0.349883L23.6461 11.15C24.402 11.906 23.8669 13.1984 22.7979 13.1984H21.5981V20.3985C21.5981 21.3533 21.2189 22.269 20.5439 22.9441C19.8689 23.6192 18.9534 23.9985 17.9988 23.9985H16.799V15.5984C16.799 14.6802 16.4483 13.7966 15.8184 13.1285C15.1886 12.4604 14.3273 12.0583 13.4108 12.0044L13.1997 11.9984H10.8001C9.84549 11.9984 8.92999 12.3777 8.25498 13.0528C7.57998 13.728 7.20076 14.6437 7.20076 15.5984V23.9985H6.00099C5.04638 23.9985 4.13088 23.6192 3.45587 22.9441C2.78087 22.269 2.40165 21.3533 2.40165 20.3985V13.1984H1.20187C0.134073 13.1984 -0.402228 11.906 0.353632 11.15L11.1516 0.349883C11.3766 0.124915 11.6817 -0.00146484 11.9999 -0.00146484C12.318 -0.00146484 12.6231 0.124915 12.8481 0.349883ZM13.1997 14.3984C13.5179 14.3984 13.823 14.5249 14.048 14.7499C14.273 14.975 14.3994 15.2802 14.3994 15.5984V23.9985H9.60032V15.5984C9.60036 15.3045 9.70825 15.0208 9.90352 14.8012C10.0988 14.5815 10.3679 14.4412 10.6597 14.4068L10.8001 14.3984H13.1997Z" fill="#DADADA"/>
</svg>
