<svg width="33" height="34" viewBox="0 0 33 34" fill="none" xmlns="http://www.w3.org/2000/svg">
<path d="M28.7301 14.4952C19.6744 13.2513 11.8654 19.9753 12.3901 28.894M8.96509 11.7689C8.96509 12.4956 9.25377 13.1926 9.76762 13.7064C10.2815 14.2203 10.9784 14.5089 11.7051 14.5089C12.4318 14.5089 13.1287 14.2203 13.6426 13.7064C14.1564 13.1926 14.4451 12.4956 14.4451 11.7689C14.4451 11.0422 14.1564 10.3453 13.6426 9.83146C13.1287 9.31761 12.4318 9.02893 11.7051 9.02893C10.9784 9.02893 10.2815 9.31761 9.76762 9.83146C9.25377 10.3453 8.96509 11.0422 8.96509 11.7689Z" stroke="#B1B1B1" stroke-width="1.5" stroke-linecap="round" stroke-linejoin="round"/>
<path d="M4.17017 18.7094C7.97878 18.1819 11.3969 20.0218 13.2451 22.9564" stroke="#B1B1B1" stroke-width="1.5" stroke-linecap="round" stroke-linejoin="round"/>
<path d="M4.17017 13.687C4.17017 10.6182 4.17017 9.08376 4.76749 7.91103C5.29287 6.87995 6.13117 6.04165 7.16225 5.51627C8.33498 4.91895 9.86938 4.91895 12.9382 4.91895H20.0622C23.131 4.91895 24.6654 4.91895 25.8381 5.51627C26.8692 6.04165 27.7075 6.87995 28.2329 7.91103C28.8302 9.08376 28.8302 10.6182 28.8302 13.687V20.811C28.8302 23.8798 28.8302 25.4142 28.2329 26.5869C27.7075 27.618 26.8692 28.4563 25.8381 28.9817C24.6654 29.579 23.131 29.579 20.0622 29.579H12.9382C9.86938 29.579 8.33498 29.579 7.16225 28.9817C6.13117 28.4563 5.29287 27.618 4.76749 26.5869C4.17017 25.4142 4.17017 23.8798 4.17017 20.811V13.687Z" stroke="#B1B1B1" stroke-width="1.5" stroke-linecap="round" stroke-linejoin="round"/>
</svg>
