<svg width="21" height="20" viewBox="0 0 21 20" fill="none" xmlns="http://www.w3.org/2000/svg">
<path d="M19.427 8.14137C12.817 7.23337 7.117 12.1414 7.5 18.6514M5 6.15137C5 6.6818 5.21071 7.19051 5.58579 7.56558C5.96086 7.94065 6.46957 8.15137 7 8.15137C7.53043 8.15137 8.03914 7.94065 8.41421 7.56558C8.78929 7.19051 9 6.6818 9 6.15137C9 5.62093 8.78929 5.11223 8.41421 4.73715C8.03914 4.36208 7.53043 4.15137 7 4.15137C6.46957 4.15137 5.96086 4.36208 5.58579 4.73715C5.21071 5.11223 5 5.62093 5 6.15137Z" stroke="#403230" stroke-width="1.5" stroke-linecap="round" stroke-linejoin="round"/>
<path d="M1.5 11.2174C4.28 10.8324 6.775 12.1754 8.124 14.3174" stroke="#403230" stroke-width="1.5" stroke-linecap="round" stroke-linejoin="round"/>
<path d="M1.5 7.55137C1.5 5.31137 1.5 4.19137 1.936 3.33537C2.31949 2.58275 2.93139 1.97085 3.684 1.58737C4.54 1.15137 5.66 1.15137 7.9 1.15137H13.1C15.34 1.15137 16.46 1.15137 17.316 1.58737C18.0686 1.97085 18.6805 2.58275 19.064 3.33537C19.5 4.19137 19.5 5.31137 19.5 7.55137V12.7514C19.5 14.9914 19.5 16.1114 19.064 16.9674C18.6805 17.72 18.0686 18.3319 17.316 18.7154C16.46 19.1514 15.34 19.1514 13.1 19.1514H7.9C5.66 19.1514 4.54 19.1514 3.684 18.7154C2.93139 18.3319 2.31949 17.72 1.936 16.9674C1.5 16.1114 1.5 14.9914 1.5 12.7514V7.55137Z" stroke="#403230" stroke-width="1.5" stroke-linecap="round" stroke-linejoin="round"/>
</svg>
