<svg width="24" height="25" viewBox="0 0 24 25" fill="none" xmlns="http://www.w3.org/2000/svg">
<path d="M12 2.69763C17.523 2.69763 22 7.17463 22 12.6976C22 18.2206 17.523 22.6976 12 22.6976C6.477 22.6976 2 18.2206 2 12.6976C2 7.17463 6.477 2.69763 12 2.69763ZM12 4.69763C9.87827 4.69763 7.84344 5.54049 6.34315 7.04078C4.84285 8.54107 4 10.5759 4 12.6976C4 14.8194 4.84285 16.8542 6.34315 18.3545C7.84344 19.8548 9.87827 20.6976 12 20.6976C14.1217 20.6976 16.1566 19.8548 17.6569 18.3545C19.1571 16.8542 20 14.8194 20 12.6976C20 10.5759 19.1571 8.54107 17.6569 7.04078C16.1566 5.54049 14.1217 4.69763 12 4.69763ZM11.99 10.6976C12.548 10.6976 13 11.1496 13 11.7076V16.8316C13.1906 16.9417 13.3396 17.1116 13.4238 17.315C13.5081 17.5183 13.5229 17.7438 13.4659 17.9565C13.4089 18.1691 13.2834 18.357 13.1087 18.491C12.9341 18.625 12.7201 18.6976 12.5 18.6976H12.01C11.8774 18.6976 11.746 18.6715 11.6235 18.6208C11.501 18.57 11.3896 18.4956 11.2958 18.4018C11.202 18.308 11.1276 18.1967 11.0769 18.0741C11.0261 17.9516 11 17.8203 11 17.6876V12.6976C10.7348 12.6976 10.4804 12.5923 10.2929 12.4047C10.1054 12.2172 10 11.9628 10 11.6976C10 11.4324 10.1054 11.1781 10.2929 10.9905C10.4804 10.803 10.7348 10.6976 11 10.6976H11.99ZM12 7.69763C12.2652 7.69763 12.5196 7.80299 12.7071 7.99053C12.8946 8.17806 13 8.43242 13 8.69763C13 8.96285 12.8946 9.2172 12.7071 9.40474C12.5196 9.59227 12.2652 9.69763 12 9.69763C11.7348 9.69763 11.4804 9.59227 11.2929 9.40474C11.1054 9.2172 11 8.96285 11 8.69763C11 8.43242 11.1054 8.17806 11.2929 7.99053C11.4804 7.80299 11.7348 7.69763 12 7.69763Z" fill="#403230"/>
</svg>
