<svg width="11" height="16" viewBox="0 0 11 16" fill="none" xmlns="http://www.w3.org/2000/svg">
<path fill-rule="evenodd" clip-rule="evenodd" d="M9.69223 1.34708C9.48129 1.1364 9.19536 1.01807 8.89723 1.01807C8.5991 1.01807 8.31317 1.1364 8.10223 1.34708L2.10223 7.34708C1.89155 7.55801 1.77322 7.84395 1.77322 8.14208C1.77322 8.4402 1.89155 8.72614 2.10223 8.93708L8.10223 14.9371C8.20522 15.0476 8.32942 15.1363 8.46742 15.1977C8.60542 15.2592 8.75439 15.2923 8.90545 15.295C9.0565 15.2976 9.20654 15.2698 9.34663 15.2133C9.48671 15.1567 9.61396 15.0725 9.72079 14.9656C9.82762 14.8588 9.91183 14.7316 9.96841 14.5915C10.025 14.4514 10.0528 14.3013 10.0501 14.1503C10.0475 13.9992 10.0144 13.8503 9.9529 13.7123C9.89141 13.5743 9.80276 13.4501 9.69223 13.3471L4.48723 8.14208L9.69223 2.93708C9.90291 2.72614 10.0212 2.4402 10.0212 2.14208C10.0212 1.84395 9.90291 1.55801 9.69223 1.34708Z" fill="#403230"/>
</svg>
