<svg width="23" height="18" viewBox="0 0 23 18" fill="none" xmlns="http://www.w3.org/2000/svg">
<path d="M1.5 9.15137C1.5 5.38037 1.5 3.49437 2.672 2.32337C3.844 1.15237 5.729 1.15137 9.5 1.15137H13.5C17.271 1.15137 19.157 1.15137 20.328 2.32337C21.499 3.49537 21.5 5.38037 21.5 9.15137C21.5 12.9224 21.5 14.8084 20.328 15.9794C19.156 17.1504 17.271 17.1514 13.5 17.1514H9.5C5.729 17.1514 3.843 17.1514 2.672 15.9794C1.501 14.8074 1.5 12.9224 1.5 9.15137Z" stroke="#403230" stroke-width="1.5"/>
<path d="M5.5 5.15137L7.659 6.95137C9.496 8.48137 10.414 9.24637 11.5 9.24637C12.586 9.24637 13.505 8.48137 15.341 6.95037L17.5 5.15137" stroke="#403230" stroke-width="1.5" stroke-linecap="round"/>
</svg>
