<svg width="25" height="25" viewBox="0 0 25 25" fill="none" xmlns="http://www.w3.org/2000/svg">
<path fill-rule="evenodd" clip-rule="evenodd" d="M7.26676 6.22152C7.26676 4.80703 7.82867 3.45047 8.82886 2.45028C9.82906 1.45009 11.1856 0.888184 12.6001 0.888184C14.0146 0.888184 15.3711 1.45009 16.3713 2.45028C17.3715 3.45047 17.9334 4.80703 17.9334 6.22152C17.9334 7.636 17.3715 8.99256 16.3713 9.99275C15.3711 10.9929 14.0146 11.5549 12.6001 11.5549C11.1856 11.5549 9.82906 10.9929 8.82886 9.99275C7.82867 8.99256 7.26676 7.636 7.26676 6.22152ZM7.26676 14.2215C5.49865 14.2215 3.80296 14.9239 2.55272 16.1741C1.30248 17.4244 0.600098 19.1201 0.600098 20.8882C0.600098 21.9491 1.02153 22.9665 1.77167 23.7166C2.52182 24.4668 3.53923 24.8882 4.6001 24.8882H20.6001C21.661 24.8882 22.6784 24.4668 23.4285 23.7166C24.1787 22.9665 24.6001 21.9491 24.6001 20.8882C24.6001 19.1201 23.8977 17.4244 22.6475 16.1741C21.3972 14.9239 19.7015 14.2215 17.9334 14.2215H7.26676Z" fill="#FFCF88"/>
</svg>
