<svg width="25" height="24" viewBox="0 0 25 24" fill="none" xmlns="http://www.w3.org/2000/svg">
<path fill-rule="evenodd" clip-rule="evenodd" d="M7.26676 5.33333C7.26676 3.91885 7.82867 2.56229 8.82886 1.5621C9.82906 0.561903 11.1856 0 12.6001 0C14.0146 0 15.3711 0.561903 16.3713 1.5621C17.3715 2.56229 17.9334 3.91885 17.9334 5.33333C17.9334 6.74782 17.3715 8.10438 16.3713 9.10457C15.3711 10.1048 14.0146 10.6667 12.6001 10.6667C11.1856 10.6667 9.82906 10.1048 8.82886 9.10457C7.82867 8.10438 7.26676 6.74782 7.26676 5.33333ZM7.26676 13.3333C5.49865 13.3333 3.80296 14.0357 2.55272 15.286C1.30248 16.5362 0.600098 18.2319 0.600098 20C0.600098 21.0609 1.02153 22.0783 1.77167 22.8284C2.52182 23.5786 3.53923 24 4.6001 24H20.6001C21.661 24 22.6784 23.5786 23.4285 22.8284C24.1787 22.0783 24.6001 21.0609 24.6001 20C24.6001 18.2319 23.8977 16.5362 22.6475 15.286C21.3972 14.0357 19.7015 13.3333 17.9334 13.3333H7.26676Z" fill="#DADADA"/>
</svg>
