<svg width="41" height="41" viewBox="0 0 41 41" fill="none" xmlns="http://www.w3.org/2000/svg">
<path d="M11.575 19.8437C11.6826 19.3577 11.9327 18.9148 12.2935 18.5719C12.6543 18.2289 13.1092 18.0015 13.6 17.9187C14.0687 17.7743 14.5667 17.7537 15.0457 17.8589C15.5246 17.964 15.9682 18.1913 16.3334 18.5187C16.6061 18.7434 16.9265 18.9029 17.2702 18.9852C17.6138 19.0676 17.9717 19.0704 18.3167 18.9937C18.5823 18.9206 18.8309 18.7956 19.0479 18.6258C19.2649 18.456 19.446 18.2449 19.5809 18.0047C19.7157 17.7644 19.8016 17.4998 19.8335 17.2261C19.8654 16.9524 19.8427 16.6752 19.7667 16.4103C19.6868 16.1194 19.5446 15.8493 19.35 15.6187L16.7167 12.5187C15.05 10.9353 13.7 10.202 11.6084 10.7853C9.51669 11.3687 8.62502 12.8687 8.13335 14.952L7.49169 18.9853C7.45084 19.2775 7.46783 19.5748 7.54169 19.8603C7.69334 20.3947 8.04976 20.8476 8.53348 21.1207C9.0172 21.3938 9.58914 21.4649 10.125 21.3187C10.4712 21.2146 10.7856 21.0248 11.039 20.767C11.2925 20.5092 11.4768 20.1916 11.575 19.8437ZM5.83085 8.22367C6.06984 8.80414 6.49065 9.28194 7.00072 9.55198C7.51078 9.82201 8.06833 9.86215 8.55069 9.66357C9.03305 9.46499 9.40072 9.04395 9.57282 8.49309C9.74491 7.94222 9.70734 7.30664 9.46835 6.72617C9.22937 6.14571 8.80856 5.6679 8.29849 5.39787C7.78842 5.12784 7.23088 5.0877 6.74852 5.28628C6.26616 5.48486 5.89849 5.9059 5.72639 6.45676C5.5543 7.00763 5.59187 7.64321 5.83085 8.22367Z" fill="#403230" fill-opacity="0.15" stroke="#403230" stroke-opacity="0.15" stroke-width="0.666667" stroke-linecap="round" stroke-linejoin="round"/>
<path d="M3.39164 14.5628C3.67038 14.7031 3.96952 14.7962 4.27185 14.8369C4.57418 14.8775 4.87374 14.8648 5.15329 14.7996C5.43284 14.7344 5.68685 14.6179 5.90072 14.4568C6.11458 14.2957 6.28408 14.0933 6.39945 13.861C6.51482 13.6288 6.57378 13.3714 6.57295 13.1037C6.57212 12.836 6.51151 12.5632 6.39461 12.301C6.27771 12.0389 6.10683 11.7925 5.89179 11.5761C5.67676 11.3598 5.42182 11.1777 5.14164 11.0403C4.86291 10.9 4.56377 10.8069 4.26144 10.7662C3.9591 10.7256 3.65955 10.7382 3.38 10.8035C3.10045 10.8687 2.84644 10.9852 2.63257 11.1463C2.41871 11.3074 2.24921 11.5098 2.13384 11.742C2.01847 11.9743 1.95951 12.2317 1.96034 12.4994C1.96117 12.7671 2.02177 13.0399 2.13867 13.3021C2.25558 13.5642 2.42646 13.8106 2.6415 14.027C2.85653 14.2433 3.11147 14.4254 3.39164 14.5628ZM11.3866 6.51446C11.4715 6.81553 11.6051 7.09983 11.7798 7.35091C11.9545 7.60199 12.1669 7.81488 12.4045 7.97726C12.6422 8.13964 12.9005 8.2483 13.1645 8.29694C13.4284 8.34559 13.6929 8.33327 13.9424 8.26068C14.192 8.18809 14.4218 8.05669 14.6186 7.87406C14.8153 7.69143 14.975 7.4612 15.0886 7.19668C15.2021 6.93217 15.2671 6.63861 15.28 6.33299C15.2928 6.02737 15.2532 5.71574 15.1633 5.41613C15.0785 5.11506 14.9449 4.83076 14.7701 4.57968C14.5954 4.3286 14.3831 4.11572 14.1454 3.95333C13.9078 3.79095 13.6495 3.6823 13.3855 3.63365C13.1215 3.585 12.8571 3.59733 12.6075 3.66991C12.3579 3.7425 12.1281 3.8739 11.9314 4.05653C11.7347 4.23916 11.5749 4.46939 11.4614 4.73391C11.3479 4.99842 11.2828 5.29198 11.27 5.5976C11.2571 5.90322 11.2968 6.21485 11.3866 6.51446ZM18.8925 11.037C19.1507 11.0405 19.4073 10.9828 19.6476 10.8672C19.8878 10.7515 20.107 10.5802 20.2926 10.363C20.4783 10.1457 20.6267 9.8868 20.7295 9.60103C20.8323 9.31525 20.8874 9.0082 20.8916 8.69741C20.8959 8.38661 20.8493 8.07816 20.7544 7.78966C20.6595 7.50116 20.5182 7.23826 20.3386 7.01598C20.159 6.7937 19.9446 6.61638 19.7076 6.49416C19.4706 6.37193 19.2157 6.30719 18.9575 6.30363C18.6992 6.30007 18.4426 6.35776 18.2024 6.47341C17.9622 6.58905 17.743 6.76039 17.5573 6.97764C17.3717 7.19489 17.2232 7.45379 17.1205 7.73956C17.0177 8.02534 16.9626 8.33239 16.9583 8.64318C16.954 8.95398 17.0007 9.26243 17.0956 9.55093C17.1905 9.83943 17.3318 10.1023 17.5114 10.3246C17.691 10.5469 17.9054 10.7242 18.1423 10.8464C18.3793 10.9687 18.6342 11.0334 18.8925 11.037ZM35.4166 33.827L33.75 30.1103C32.7333 28.2686 31.475 27.0686 29.3 27.0686C27.125 27.0686 25.825 28.2686 24.8 30.1103L23.1333 33.827C23.0101 34.0877 22.9447 34.3719 22.9416 34.6603C22.9372 35.2144 23.1519 35.7478 23.539 36.1443C23.9261 36.5408 24.4543 36.7682 25.0083 36.777C25.3644 36.7723 25.7138 36.6793 26.0251 36.5062C26.3364 36.3331 26.5998 36.0854 26.7916 35.7853C27.027 35.3393 27.3916 34.9749 27.8378 34.7399C28.284 34.5049 28.7908 34.4104 29.2916 34.4686C29.7925 34.4104 30.2993 34.5049 30.7455 34.7399C31.1917 34.9749 31.5563 35.3393 31.7916 35.7853C31.9772 36.0762 32.2301 36.3182 32.5289 36.4908C32.8276 36.6634 33.1636 36.7616 33.5083 36.777C34.0631 36.777 34.5951 36.5566 34.9873 36.1643C35.3796 35.7721 35.6 35.24 35.6 34.6853C35.6046 34.389 35.5419 34.0955 35.4166 33.827ZM24.3858 23.047C24.4199 23.358 24.5049 23.6604 24.636 23.9369C24.767 24.2134 24.9414 24.4584 25.1492 24.6577C25.357 24.8571 25.5939 25.0068 25.8463 25.0982C26.0988 25.1896 26.3617 25.221 26.6199 25.1904C26.8781 25.1598 27.1264 25.0679 27.3505 24.9201C27.5746 24.7722 27.77 24.5713 27.9255 24.329C28.081 24.0866 28.1934 23.8077 28.2562 23.5082C28.3191 23.2088 28.3311 22.8948 28.2916 22.5845C28.2575 22.2735 28.1725 21.971 28.0415 21.6945C27.9105 21.418 27.736 21.173 27.5283 20.9737C27.3205 20.7744 27.0835 20.6247 26.8311 20.5332C26.5787 20.4418 26.3158 20.4105 26.0576 20.441C25.7994 20.4716 25.5511 20.5635 25.327 20.7113C25.1029 20.8592 24.9074 21.0601 24.7519 21.3024C24.5965 21.5448 24.4841 21.8237 24.4212 22.1232C24.3584 22.4226 24.3463 22.7366 24.3858 23.047Z" fill="#403230" fill-opacity="0.15" stroke="#403230" stroke-opacity="0.15" stroke-width="0.666667" stroke-linecap="round" stroke-linejoin="round"/>
<path d="M19.7542 27.5603C19.8404 27.8606 19.9751 28.1438 20.1507 28.3937C20.3263 28.6436 20.5392 28.8552 20.7772 29.0164C21.0152 29.1775 21.2735 29.285 21.5373 29.3326C21.8011 29.3802 22.0651 29.367 22.3141 29.2937C22.5631 29.2205 22.7922 29.0886 22.9882 28.9058C23.1842 28.7229 23.3432 28.4927 23.456 28.2284C23.5688 27.964 23.6332 27.6708 23.6454 27.3657C23.6577 27.0605 23.6176 26.7494 23.5275 26.4503C23.4397 26.1522 23.304 25.8713 23.1281 25.6238C22.9522 25.3762 22.7396 25.1668 22.5023 25.0076C22.2651 24.8483 22.0078 24.7423 21.7454 24.6956C21.4829 24.6489 21.2203 24.6624 20.9725 24.7353C20.7247 24.8083 20.4967 24.9392 20.3014 25.1207C20.1061 25.3022 19.9473 25.5307 19.8342 25.7931C19.721 26.0555 19.6557 26.3467 19.642 26.65C19.6283 26.9534 19.6664 27.263 19.7542 27.5612M31.8958 25.1645C32.1541 25.1996 32.4178 25.1725 32.6718 25.0849C32.9257 24.9972 33.1647 24.8507 33.3749 24.6539C33.5851 24.4571 33.7623 24.2139 33.8963 23.9384C34.0302 23.6629 34.1182 23.3606 34.1551 23.0492C34.1919 22.7377 34.177 22.4233 34.1111 22.1241C34.0453 21.8249 33.9298 21.547 33.7714 21.3065C33.613 21.066 33.4148 20.8678 33.1884 20.7232C32.962 20.5786 32.7118 20.4907 32.4525 20.4645C32.1942 20.4294 31.9305 20.4564 31.6766 20.5441C31.4226 20.6317 31.1836 20.7782 30.9734 20.9751C30.7632 21.1719 30.586 21.4151 30.4521 21.6906C30.3181 21.9661 30.2302 22.2683 30.1933 22.5798C30.1564 22.8913 30.1713 23.2057 30.2372 23.5049C30.303 23.804 30.4185 24.0819 30.577 24.3224C30.7354 24.5629 30.9335 24.7612 31.16 24.9058C31.3864 25.0503 31.6365 25.1383 31.8958 25.1645Z" fill="#403230" fill-opacity="0.15"/>
<path d="M19.7542 27.5603C19.8404 27.8606 19.9751 28.1438 20.1507 28.3937C20.3263 28.6436 20.5392 28.8552 20.7772 29.0164C21.0152 29.1775 21.2735 29.285 21.5373 29.3326C21.8011 29.3802 22.0651 29.367 22.3141 29.2937C22.5631 29.2205 22.7922 29.0886 22.9882 28.9058C23.1842 28.7229 23.3432 28.4927 23.456 28.2284C23.5688 27.964 23.6332 27.6708 23.6454 27.3657C23.6577 27.0605 23.6176 26.7494 23.5275 26.4503C23.4397 26.1522 23.304 25.8713 23.1281 25.6238C22.9522 25.3762 22.7396 25.1668 22.5023 25.0076C22.2651 24.8483 22.0078 24.7423 21.7454 24.6956C21.4829 24.6489 21.2203 24.6624 20.9725 24.7353C20.7247 24.8083 20.4967 24.9392 20.3014 25.1207C20.1061 25.3022 19.9473 25.5307 19.8342 25.7931C19.721 26.0555 19.6557 26.3467 19.642 26.65C19.6283 26.9534 19.6664 27.263 19.7542 27.5612M31.8958 25.1645C32.1541 25.1996 32.4178 25.1725 32.6718 25.0849C32.9257 24.9972 33.1647 24.8507 33.3749 24.6539C33.5851 24.4571 33.7623 24.2139 33.8963 23.9384C34.0302 23.6629 34.1182 23.3606 34.1551 23.0492C34.1919 22.7377 34.177 22.4233 34.1111 22.1241C34.0453 21.8249 33.9298 21.547 33.7714 21.3065C33.613 21.066 33.4148 20.8678 33.1884 20.7232C32.962 20.5786 32.7118 20.4907 32.4525 20.4645C32.1942 20.4294 31.9305 20.4564 31.6766 20.5441C31.4226 20.6317 31.1836 20.7782 30.9734 20.9751C30.7632 21.1719 30.586 21.4151 30.4521 21.6906C30.3181 21.9661 30.2302 22.2683 30.1933 22.5798C30.1564 22.8913 30.1713 23.2057 30.2372 23.5049C30.303 23.804 30.4185 24.0819 30.577 24.3224C30.7354 24.5629 30.9335 24.7612 31.16 24.9058C31.3864 25.0503 31.6365 25.1383 31.8958 25.1645Z" stroke="#403230" stroke-opacity="0.15" stroke-width="0.666667" stroke-linecap="round" stroke-linejoin="round"/>
<path d="M36.2083 29.2704C36.4565 29.3453 36.7199 29.3605 36.9835 29.3149C37.2471 29.2693 37.5055 29.164 37.744 29.0048C37.9825 28.8457 38.1963 28.636 38.3732 28.3877C38.55 28.1395 38.6864 27.8576 38.7744 27.5582C38.8625 27.2589 38.9005 26.9481 38.8862 26.6436C38.872 26.3392 38.8058 26.0471 38.6915 25.7842C38.5771 25.5213 38.4169 25.2928 38.22 25.1118C38.0231 24.9308 37.7934 24.8009 37.5441 24.7295C37.2963 24.6566 37.0336 24.6431 36.7711 24.6898C36.5086 24.7366 36.2513 24.8426 36.014 25.0019C35.7768 25.1612 35.5641 25.3707 35.3882 25.6183C35.2122 25.8659 35.0765 26.1468 34.9888 26.445C34.901 26.7432 34.8629 27.0529 34.8766 27.3563C34.8904 27.6597 34.9557 27.9509 35.0689 28.2134C35.182 28.4758 35.3408 28.7043 35.5362 28.8858C35.7316 29.0673 35.9596 29.1983 36.2075 29.2712" fill="#403230" fill-opacity="0.15"/>
<path d="M36.2083 29.2704C36.4565 29.3453 36.7199 29.3605 36.9835 29.3149C37.2471 29.2693 37.5055 29.164 37.744 29.0048C37.9825 28.8457 38.1963 28.636 38.3732 28.3877C38.55 28.1395 38.6864 27.8576 38.7744 27.5582C38.8625 27.2589 38.9005 26.9481 38.8862 26.6436C38.872 26.3392 38.8058 26.0471 38.6915 25.7842C38.5771 25.5213 38.4169 25.2928 38.22 25.1118C38.0231 24.9308 37.7934 24.8009 37.5441 24.7295C37.2963 24.6566 37.0336 24.6431 36.7711 24.6898C36.5086 24.7366 36.2513 24.8426 36.014 25.0019C35.7768 25.1612 35.5641 25.3707 35.3882 25.6183C35.2122 25.8659 35.0765 26.1468 34.9888 26.445C34.901 26.7432 34.8629 27.0529 34.8766 27.3563C34.8904 27.6597 34.9557 27.9509 35.0689 28.2134C35.182 28.4758 35.3408 28.7043 35.5362 28.8858C35.7316 29.0673 35.9596 29.1983 36.2075 29.2712" stroke="#403230" stroke-opacity="0.15" stroke-width="0.666667" stroke-linecap="round" stroke-linejoin="round"/>
</svg>
