<svg width="40" height="40" viewBox="0 0 40 40" fill="none" xmlns="http://www.w3.org/2000/svg">
<path d="M11.075 19.7334C11.1826 19.2474 11.4327 18.8046 11.7935 18.4617C12.1543 18.1187 12.6092 17.8913 13.1 17.8084C13.5687 17.6641 14.0667 17.6435 14.5456 17.7487C15.0246 17.8538 15.4682 18.0811 15.8333 18.4084C16.1061 18.6331 16.4265 18.7927 16.7701 18.875C17.1138 18.9573 17.4717 18.9602 17.8167 18.8834C18.0823 18.8104 18.3308 18.6853 18.5478 18.5156C18.7648 18.3458 18.946 18.1347 19.0809 17.8944C19.2157 17.6542 19.3016 17.3895 19.3335 17.1159C19.3654 16.8422 19.3427 16.5649 19.2667 16.3001C19.1868 16.0092 19.0446 15.739 18.85 15.5084L16.2167 12.4084C14.55 10.8251 13.2 10.0918 11.1083 10.6751C9.01667 11.2584 8.12501 12.7584 7.63334 14.8418L6.99167 18.8751C6.95082 19.1672 6.96781 19.4645 7.04167 19.7501C7.19333 20.2845 7.54974 20.7374 8.03346 21.0105C8.51719 21.2836 9.08913 21.3547 9.62501 21.2084C9.97122 21.1043 10.2856 20.9146 10.539 20.6568C10.7925 20.399 10.9768 20.0814 11.075 19.7334ZM5.33084 8.11345C5.56982 8.69391 5.99063 9.17172 6.5007 9.44175C7.01077 9.71178 7.56831 9.75192 8.05067 9.55334C8.53303 9.35476 8.90071 8.93372 9.0728 8.38286C9.2449 7.83199 9.20732 7.19641 8.96834 6.61595C8.72936 6.03548 8.30854 5.55768 7.79848 5.28764C7.28841 5.01761 6.73087 4.97747 6.24851 5.17605C5.76614 5.37463 5.39847 5.79567 5.22638 6.34653C5.05428 6.8974 5.09186 7.53298 5.33084 8.11345Z" fill="#C85A55" fill-opacity="0.15" stroke="#C85A55" stroke-opacity="0.15" stroke-width="0.666667" stroke-linecap="round" stroke-linejoin="round"/>
<path d="M2.89166 14.4524C3.17039 14.5927 3.46953 14.6859 3.77187 14.7265C4.0742 14.7671 4.37376 14.7545 4.65331 14.6893C4.93285 14.6241 5.18687 14.5075 5.40073 14.3465C5.6146 14.1854 5.78409 13.9829 5.89946 13.7507C6.01483 13.5185 6.0738 13.2611 6.07297 12.9934C6.07214 12.7256 6.01153 12.4528 5.89463 12.1907C5.77773 11.9285 5.60684 11.6822 5.39181 11.4658C5.17677 11.2494 4.92183 11.0673 4.64166 10.9299C4.36293 10.7897 4.06379 10.6965 3.76145 10.6559C3.45912 10.6152 3.15956 10.6279 2.88001 10.6931C2.60047 10.7583 2.34645 10.8748 2.13259 11.0359C1.91872 11.197 1.74923 11.3995 1.63386 11.6317C1.51849 11.8639 1.45952 12.1213 1.46035 12.389C1.46118 12.6568 1.52179 12.9296 1.63869 13.1917C1.75559 13.4539 1.92648 13.7002 2.14151 13.9166C2.35655 14.133 2.61149 14.3151 2.89166 14.4524ZM10.8867 6.40411C10.9715 6.70518 11.1051 6.98948 11.2798 7.24056C11.4545 7.49164 11.6669 7.70452 11.9045 7.86691C12.1422 8.02929 12.4005 8.13794 12.6645 8.18659C12.9284 8.23524 13.1929 8.22291 13.4425 8.15033C13.6921 8.07774 13.9219 7.94634 14.1186 7.76371C14.3153 7.58108 14.475 7.35085 14.5886 7.08633C14.7021 6.82182 14.7672 6.52826 14.78 6.22264C14.7928 5.91701 14.7532 5.60539 14.6633 5.30578C14.5785 5.00471 14.4449 4.72041 14.2702 4.46933C14.0954 4.21825 13.8831 4.00536 13.6454 3.84298C13.4078 3.6806 13.1495 3.57194 12.8855 3.5233C12.6215 3.47465 12.3571 3.48697 12.1075 3.55956C11.8579 3.63215 11.6281 3.76355 11.4314 3.94618C11.2347 4.12881 11.0749 4.35904 10.9614 4.62356C10.8479 4.88807 10.7828 5.18163 10.77 5.48725C10.7572 5.79287 10.7968 6.1045 10.8867 6.40411ZM18.3925 10.9266C18.6508 10.9302 18.9073 10.8725 19.1476 10.7568C19.3878 10.6412 19.607 10.4698 19.7927 10.2526C19.9783 10.0354 20.1267 9.77645 20.2295 9.49068C20.3323 9.2049 20.3874 8.89785 20.3917 8.58706C20.3959 8.27626 20.3493 7.96781 20.2544 7.67931C20.1595 7.39081 20.0182 7.12791 19.8386 6.90563C19.659 6.68335 19.4446 6.50603 19.2076 6.3838C18.9707 6.26158 18.7158 6.19684 18.4575 6.19328C18.1992 6.18972 17.9426 6.24741 17.7024 6.36305C17.4622 6.4787 17.243 6.65004 17.0573 6.86729C16.8717 7.08454 16.7232 7.34344 16.6205 7.62921C16.5177 7.91499 16.4626 8.22204 16.4583 8.53283C16.4541 8.84363 16.5007 9.15208 16.5956 9.44058C16.6905 9.72908 16.8318 9.99198 17.0114 10.2143C17.191 10.4365 17.4054 10.6139 17.6424 10.7361C17.8793 10.8583 18.1342 10.9231 18.3925 10.9266ZM34.9167 33.7166L33.25 29.9999C32.2333 28.1583 30.975 26.9583 28.8 26.9583C26.625 26.9583 25.325 28.1583 24.3 29.9999L22.6333 33.7166C22.5101 33.9773 22.4447 34.2616 22.4417 34.5499C22.4372 35.104 22.6519 35.6375 23.039 36.0339C23.4261 36.4304 23.9543 36.6578 24.5083 36.6666C24.8645 36.662 25.2139 36.5689 25.5251 36.3958C25.8364 36.2227 26.0998 35.975 26.2917 35.6749C26.527 35.229 26.8916 34.8645 27.3378 34.6296C27.784 34.3946 28.2908 34.3 28.7917 34.3583C29.2925 34.3 29.7993 34.3946 30.2455 34.6296C30.6917 34.8645 31.0564 35.229 31.2917 35.6749C31.4772 35.9659 31.7301 36.2078 32.0289 36.3805C32.3277 36.5531 32.6636 36.6512 33.0083 36.6666C33.5631 36.6666 34.0951 36.4462 34.4874 36.054C34.8796 35.6617 35.1 35.1297 35.1 34.5749C35.1046 34.2786 35.0419 33.9852 34.9167 33.7166ZM23.8858 22.9366C23.9199 23.2476 24.005 23.5501 24.136 23.8266C24.267 24.1031 24.4415 24.3481 24.6492 24.5474C24.857 24.7467 25.0939 24.8964 25.3464 24.9878C25.5988 25.0793 25.8617 25.1106 26.1199 25.08C26.3781 25.0495 26.6264 24.9576 26.8505 24.8097C27.0746 24.6619 27.2701 24.461 27.4255 24.2186C27.581 23.9763 27.6934 23.6973 27.7562 23.3979C27.8191 23.0985 27.8311 22.7845 27.7917 22.4741C27.7576 22.1631 27.6725 21.8606 27.5415 21.5841C27.4105 21.3077 27.236 21.0627 27.0283 20.8633C26.8205 20.664 26.5836 20.5143 26.3311 20.4229C26.0787 20.3314 25.8158 20.3001 25.5576 20.3307C25.2994 20.3613 25.0511 20.4531 24.827 20.601C24.6029 20.7488 24.4074 20.9498 24.252 21.1921C24.0965 21.4344 23.9841 21.7134 23.9212 22.0128C23.8584 22.3123 23.8464 22.6263 23.8858 22.9366Z" fill="#C85A55" fill-opacity="0.15" stroke="#C85A55" stroke-opacity="0.15" stroke-width="0.666667" stroke-linecap="round" stroke-linejoin="round"/>
<path d="M19.2542 27.4501C19.3404 27.7503 19.4751 28.0336 19.6507 28.2835C19.8263 28.5334 20.0392 28.745 20.2772 28.9061C20.5152 29.0673 20.7735 29.1747 21.0373 29.2223C21.3011 29.2699 21.5651 29.2567 21.8141 29.1835C22.0631 29.1102 22.2922 28.9784 22.4882 28.7955C22.6842 28.6127 22.8432 28.3825 22.956 28.1181C23.0688 27.8538 23.1332 27.5606 23.1454 27.2554C23.1577 26.9503 23.1176 26.6392 23.0275 26.3401C22.9397 26.0419 22.804 25.7611 22.6281 25.5135C22.4522 25.266 22.2396 25.0566 22.0023 24.8974C21.7651 24.7381 21.5078 24.6321 21.2454 24.5854C20.9829 24.5387 20.7203 24.5522 20.4725 24.6251C20.2247 24.698 19.9967 24.829 19.8014 25.0105C19.6061 25.192 19.4473 25.4204 19.3342 25.6828C19.221 25.9452 19.1557 26.2364 19.142 26.5398C19.1283 26.8432 19.1664 27.1528 19.2542 27.4509M31.3958 25.0543C31.6541 25.0894 31.9178 25.0623 32.1718 24.9747C32.4257 24.887 32.6647 24.7405 32.8749 24.5437C33.0851 24.3469 33.2623 24.1037 33.3963 23.8282C33.5302 23.5527 33.6182 23.2504 33.6551 22.939C33.6919 22.6275 33.677 22.313 33.6111 22.0139C33.5453 21.7147 33.4298 21.4368 33.2714 21.1963C33.113 20.9558 32.9148 20.7575 32.6884 20.613C32.462 20.4684 32.2118 20.3805 31.9525 20.3543C31.6942 20.3192 31.4305 20.3462 31.1766 20.4339C30.9226 20.5215 30.6836 20.668 30.4734 20.8648C30.2632 21.0616 30.086 21.3049 29.9521 21.5804C29.8181 21.8559 29.7302 22.1581 29.6933 22.4696C29.6564 22.781 29.6713 23.0955 29.7372 23.3946C29.803 23.6938 29.9185 23.9717 30.077 24.2122C30.2354 24.4527 30.4335 24.651 30.66 24.7955C30.8864 24.9401 31.1365 25.028 31.3958 25.0543Z" fill="#C85A55" fill-opacity="0.15"/>
<path d="M19.2542 27.4501C19.3404 27.7503 19.4751 28.0336 19.6507 28.2835C19.8263 28.5334 20.0392 28.745 20.2772 28.9061C20.5152 29.0673 20.7735 29.1747 21.0373 29.2223C21.3011 29.2699 21.5651 29.2567 21.8141 29.1835C22.0631 29.1102 22.2922 28.9784 22.4882 28.7955C22.6842 28.6127 22.8432 28.3825 22.956 28.1181C23.0688 27.8538 23.1332 27.5606 23.1454 27.2554C23.1577 26.9503 23.1176 26.6392 23.0275 26.3401C22.9397 26.0419 22.804 25.7611 22.6281 25.5135C22.4522 25.266 22.2396 25.0566 22.0023 24.8974C21.7651 24.7381 21.5078 24.6321 21.2454 24.5854C20.9829 24.5387 20.7203 24.5522 20.4725 24.6251C20.2247 24.698 19.9967 24.829 19.8014 25.0105C19.6061 25.192 19.4473 25.4204 19.3342 25.6828C19.221 25.9452 19.1557 26.2364 19.142 26.5398C19.1283 26.8432 19.1664 27.1528 19.2542 27.4509M31.3958 25.0543C31.6541 25.0894 31.9178 25.0623 32.1718 24.9747C32.4257 24.887 32.6647 24.7405 32.8749 24.5437C33.0851 24.3469 33.2623 24.1037 33.3963 23.8282C33.5302 23.5527 33.6182 23.2504 33.6551 22.939C33.6919 22.6275 33.677 22.313 33.6111 22.0139C33.5453 21.7147 33.4298 21.4368 33.2714 21.1963C33.113 20.9558 32.9148 20.7575 32.6884 20.613C32.462 20.4684 32.2118 20.3805 31.9525 20.3543C31.6942 20.3192 31.4305 20.3462 31.1766 20.4339C30.9226 20.5215 30.6836 20.668 30.4734 20.8648C30.2632 21.0616 30.086 21.3049 29.9521 21.5804C29.8181 21.8559 29.7302 22.1581 29.6933 22.4696C29.6564 22.781 29.6713 23.0955 29.7372 23.3946C29.803 23.6938 29.9185 23.9717 30.077 24.2122C30.2354 24.4527 30.4335 24.651 30.66 24.7955C30.8864 24.9401 31.1365 25.028 31.3958 25.0543Z" stroke="#C85A55" stroke-opacity="0.15" stroke-width="0.666667" stroke-linecap="round" stroke-linejoin="round"/>
<path d="M35.7083 29.16C35.9565 29.235 36.22 29.2501 36.4835 29.2046C36.7471 29.159 37.0056 29.0536 37.2441 28.8945C37.4825 28.7354 37.6964 28.5256 37.8732 28.2774C38.05 28.0291 38.1864 27.7472 38.2745 27.4479C38.3625 27.1486 38.4005 26.8377 38.3863 26.5333C38.372 26.2288 38.3059 25.9367 38.1915 25.6738C38.0772 25.4109 37.9169 25.1824 37.72 25.0014C37.5231 24.8204 37.2934 24.6905 37.0442 24.6192C36.7964 24.5462 36.5337 24.5328 36.2712 24.5795C36.0086 24.6262 35.7514 24.7323 35.5141 24.8916C35.2768 25.0509 35.0641 25.2603 34.8882 25.5079C34.7123 25.7555 34.5766 26.0364 34.4888 26.3346C34.401 26.6328 34.3629 26.9425 34.3767 27.2459C34.3904 27.5493 34.4558 27.8406 34.5689 28.103C34.6821 28.3655 34.8409 28.594 35.0362 28.7755C35.2316 28.957 35.4597 29.0879 35.7075 29.1608" fill="#C85A55" fill-opacity="0.15"/>
<path d="M35.7083 29.16C35.9565 29.235 36.22 29.2501 36.4835 29.2046C36.7471 29.159 37.0056 29.0536 37.2441 28.8945C37.4825 28.7354 37.6964 28.5256 37.8732 28.2774C38.05 28.0291 38.1864 27.7472 38.2745 27.4479C38.3625 27.1486 38.4005 26.8377 38.3863 26.5333C38.372 26.2288 38.3059 25.9367 38.1915 25.6738C38.0772 25.4109 37.9169 25.1824 37.72 25.0014C37.5231 24.8204 37.2934 24.6905 37.0442 24.6192C36.7964 24.5462 36.5337 24.5328 36.2712 24.5795C36.0086 24.6262 35.7514 24.7323 35.5141 24.8916C35.2768 25.0509 35.0641 25.2603 34.8882 25.5079C34.7123 25.7555 34.5766 26.0364 34.4888 26.3346C34.401 26.6328 34.3629 26.9425 34.3767 27.2459C34.3904 27.5493 34.4558 27.8406 34.5689 28.103C34.6821 28.3655 34.8409 28.594 35.0362 28.7755C35.2316 28.957 35.4597 29.0879 35.7075 29.1608" stroke="#C85A55" stroke-opacity="0.15" stroke-width="0.666667" stroke-linecap="round" stroke-linejoin="round"/>
</svg>
