<svg width="16" height="17" viewBox="0 0 16 17" fill="none" xmlns="http://www.w3.org/2000/svg">
<path d="M3.33333 6.84743C4.61345 9.63448 6.88759 11.8435 9.71067 13.0421L10.164 13.2441C10.666 13.4676 11.2308 13.5068 11.7589 13.3547C12.287 13.2027 12.7444 12.8691 13.0507 12.4128L13.6433 11.5301C13.7361 11.3917 13.7736 11.2235 13.7486 11.0588C13.7235 10.8941 13.6377 10.7447 13.508 10.6401L11.5 9.02009C11.4301 8.96371 11.3495 8.92205 11.263 8.8976C11.1766 8.87315 11.0861 8.86642 10.997 8.87781C10.9079 8.88921 10.822 8.91849 10.7445 8.96391C10.667 9.00932 10.5995 9.06993 10.546 9.14209L9.92467 9.98009C8.32974 9.19239 7.03875 7.90117 6.25133 6.30609L7.08867 5.68476C7.16083 5.63127 7.22144 5.56374 7.26685 5.48624C7.31227 5.40874 7.34155 5.32286 7.35295 5.23376C7.36434 5.14465 7.35761 5.05417 7.33316 4.96773C7.30871 4.8813 7.26705 4.80069 7.21067 4.73076L5.59067 2.72276C5.48606 2.59306 5.33669 2.50724 5.17196 2.48219C5.00723 2.45714 4.83909 2.49468 4.70067 2.58743L3.812 3.18343C3.35293 3.49128 3.01806 3.9521 2.86703 4.4838C2.71601 5.01551 2.75864 5.58356 2.98733 6.08676L3.33333 6.84743Z" fill="#403230"/>
</svg>
