<svg width="289" height="23" viewBox="0 0 289 23" fill="none" xmlns="http://www.w3.org/2000/svg">
<path d="M10.8125 11.6382L10.8125 2.65088C10.8125 2.46855 10.8849 2.29368 11.0139 2.16475C11.1428 2.03582 11.3177 1.96338 11.5 1.96338C11.6823 1.96338 11.8572 2.03582 11.9861 2.16475C12.1151 2.29368 12.1875 2.46855 12.1875 2.65088L12.1875 11.6382C13.3917 11.812 14.4854 12.4355 15.2484 13.3832C16.0115 14.3309 16.3873 15.5324 16.3001 16.746C16.213 17.9596 15.6694 19.0951 14.7788 19.9241C13.8882 20.753 12.7167 21.2139 11.5 21.2139C10.2833 21.2139 9.11176 20.753 8.22115 19.9241C7.33054 19.0951 6.78698 17.9596 6.69985 16.746C6.61272 15.5324 6.98849 14.3309 7.75154 13.3832C8.51459 12.4355 9.60827 11.812 10.8125 11.6382Z" fill="#403230"/>
<path d="M48.8125 11.6382L48.8125 2.65088C48.8125 2.46855 48.8849 2.29368 49.0139 2.16475C49.1428 2.03582 49.3177 1.96338 49.5 1.96338C49.6823 1.96338 49.8572 2.03582 49.9861 2.16475C50.1151 2.29368 50.1875 2.46855 50.1875 2.65088L50.1875 11.6382C51.3917 11.812 52.4854 12.4355 53.2484 13.3832C54.0115 14.3309 54.3873 15.5324 54.3001 16.746C54.213 17.9596 53.6694 19.0951 52.7788 19.9241C51.8882 20.753 50.7167 21.2139 49.5 21.2139C48.2833 21.2139 47.1118 20.753 46.2212 19.9241C45.3305 19.0951 44.787 17.9596 44.6998 16.746C44.6127 15.5324 44.9885 14.3309 45.7515 13.3832C46.5146 12.4355 47.6083 11.812 48.8125 11.6382Z" fill="#403230"/>
<path d="M86.8125 11.6382L86.8125 2.65088C86.8125 2.46855 86.8849 2.29368 87.0139 2.16475C87.1428 2.03582 87.3177 1.96338 87.5 1.96338C87.6823 1.96338 87.8572 2.03582 87.9861 2.16475C88.1151 2.29368 88.1875 2.46855 88.1875 2.65088L88.1875 11.6382C89.3917 11.812 90.4854 12.4355 91.2484 13.3832C92.0115 14.3309 92.3873 15.5324 92.3001 16.746C92.213 17.9596 91.6694 19.0951 90.7788 19.9241C89.8882 20.753 88.7167 21.2139 87.5 21.2139C86.2833 21.2139 85.1118 20.753 84.2212 19.9241C83.3305 19.0951 82.787 17.9596 82.6998 16.746C82.6127 15.5324 82.9885 14.3309 83.7515 13.3832C84.5146 12.4355 85.6083 11.812 86.8125 11.6382Z" fill="#403230"/>
<path d="M124.812 11.6382L124.812 2.65088C124.812 2.46855 124.885 2.29368 125.014 2.16475C125.143 2.03582 125.318 1.96338 125.5 1.96338C125.682 1.96338 125.857 2.03582 125.986 2.16475C126.115 2.29368 126.187 2.46855 126.187 2.65088L126.187 11.6382C127.392 11.812 128.485 12.4355 129.248 13.3832C130.011 14.3309 130.387 15.5324 130.3 16.746C130.213 17.9596 129.669 19.0951 128.779 19.9241C127.888 20.753 126.717 21.2139 125.5 21.2139C124.283 21.2139 123.112 20.753 122.221 19.9241C121.331 19.0951 120.787 17.9596 120.7 16.746C120.613 15.5324 120.988 14.3309 121.752 13.3832C122.515 12.4355 123.608 11.812 124.812 11.6382Z" fill="#403230"/>
<path d="M162.812 11.6382V2.65088C162.812 2.46855 162.885 2.29368 163.014 2.16475C163.143 2.03582 163.318 1.96338 163.5 1.96338C163.682 1.96338 163.857 2.03582 163.986 2.16475C164.115 2.29368 164.187 2.46855 164.187 2.65088V11.6382C165.392 11.812 166.485 12.4355 167.248 13.3832C168.011 14.3309 168.387 15.5324 168.3 16.746C168.213 17.9596 167.669 19.0951 166.779 19.9241C165.888 20.753 164.717 21.2139 163.5 21.2139C162.283 21.2139 161.112 20.753 160.221 19.9241C159.331 19.0951 158.787 17.9596 158.7 16.746C158.613 15.5324 158.988 14.3309 159.752 13.3832C160.515 12.4355 161.608 11.812 162.812 11.6382Z" fill="#403230"/>
<path d="M200.812 11.6382V2.65088C200.812 2.46855 200.885 2.29368 201.014 2.16475C201.143 2.03582 201.318 1.96338 201.5 1.96338C201.682 1.96338 201.857 2.03582 201.986 2.16475C202.115 2.29368 202.187 2.46855 202.187 2.65088V11.6382C203.392 11.812 204.485 12.4355 205.248 13.3832C206.011 14.3309 206.387 15.5324 206.3 16.746C206.213 17.9596 205.669 19.0951 204.779 19.9241C203.888 20.753 202.717 21.2139 201.5 21.2139C200.283 21.2139 199.112 20.753 198.221 19.9241C197.331 19.0951 196.787 17.9596 196.7 16.746C196.613 15.5324 196.988 14.3309 197.752 13.3832C198.515 12.4355 199.608 11.812 200.812 11.6382Z" fill="#403230"/>
<path d="M238.812 11.6382V2.65088C238.812 2.46855 238.885 2.29368 239.014 2.16475C239.143 2.03582 239.318 1.96338 239.5 1.96338C239.682 1.96338 239.857 2.03582 239.986 2.16475C240.115 2.29368 240.187 2.46855 240.187 2.65088V11.6382C241.392 11.812 242.485 12.4355 243.248 13.3832C244.011 14.3309 244.387 15.5324 244.3 16.746C244.213 17.9596 243.669 19.0951 242.779 19.9241C241.888 20.753 240.717 21.2139 239.5 21.2139C238.283 21.2139 237.112 20.753 236.221 19.9241C235.331 19.0951 234.787 17.9596 234.7 16.746C234.613 15.5324 234.988 14.3309 235.752 13.3832C236.515 12.4355 237.608 11.812 238.812 11.6382Z" fill="#403230"/>
<path d="M276.812 11.6382V2.65088C276.812 2.46855 276.885 2.29368 277.014 2.16475C277.143 2.03582 277.318 1.96338 277.5 1.96338C277.682 1.96338 277.857 2.03582 277.986 2.16475C278.115 2.29368 278.187 2.46855 278.187 2.65088V11.6382C279.392 11.812 280.485 12.4355 281.248 13.3832C282.011 14.3309 282.387 15.5324 282.3 16.746C282.213 17.9596 281.669 19.0951 280.779 19.9241C279.888 20.753 278.717 21.2139 277.5 21.2139C276.283 21.2139 275.112 20.753 274.221 19.9241C273.331 19.0951 272.787 17.9596 272.7 16.746C272.613 15.5324 272.988 14.3309 273.752 13.3832C274.515 12.4355 275.608 11.812 276.812 11.6382Z" fill="#403230"/>
</svg>
