<svg width="43" height="54" viewBox="0 0 43 54" fill="none" xmlns="http://www.w3.org/2000/svg">
<path d="M36.0171 27.9446C37.6984 27.9446 39.3109 28.6125 40.4998 29.8014C41.6887 30.9903 42.3566 32.6028 42.3566 34.2841V36.3972C42.3566 44.7273 34.4956 53.3025 21.225 53.3025C7.95443 53.3025 0.0935059 44.7273 0.0935059 36.3972V34.2841C0.0935059 32.6028 0.761411 30.9903 1.95029 29.8014C3.13917 28.6125 4.75164 27.9446 6.43296 27.9446H36.0171ZM21.225 0.473633C24.3075 0.473633 27.2637 1.69813 29.4433 3.87774C31.6229 6.05735 32.8474 9.01354 32.8474 12.096C32.8474 15.1784 31.6229 18.1346 29.4433 20.3142C27.2637 22.4938 24.3075 23.7183 21.225 23.7183C18.1426 23.7183 15.1864 22.4938 13.0068 20.3142C10.8272 18.1346 9.60269 15.1784 9.60269 12.096C9.60269 9.01354 10.8272 6.05735 13.0068 3.87774C15.1864 1.69813 18.1426 0.473633 21.225 0.473633Z" fill="#403230"/>
</svg>
