<svg width="14" height="24" viewBox="0 0 14 24" fill="none" xmlns="http://www.w3.org/2000/svg">
<path d="M13.666 7.00004C13.6674 5.45788 13.1596 3.9584 12.2213 2.73451C11.283 1.51062 9.96687 0.63083 8.47722 0.231797C6.98758 -0.167235 5.40786 -0.0631729 3.98343 0.527819C2.559 1.11881 1.3696 2.16365 0.599981 3.50004C0.334765 3.95967 0.262993 4.50582 0.400457 5.01835C0.537922 5.53089 0.873361 5.96783 1.33298 6.23304C1.7926 6.49826 2.33875 6.57003 2.85129 6.43257C3.36383 6.2951 3.80076 5.95966 4.06598 5.50004C4.32945 5.0437 4.70847 4.66481 5.16489 4.40149C5.62132 4.13817 6.13905 3.99971 6.66598 4.00004C7.46163 4.00004 8.22469 4.31611 8.7873 4.87872C9.34991 5.44133 9.66598 6.2044 9.66598 7.00004C9.66598 7.79569 9.34991 8.55876 8.7873 9.12137C8.22469 9.68397 7.46163 10 6.66598 10H6.65998C6.53109 10.0137 6.40382 10.0398 6.27998 10.078C6.14562 10.0913 6.01294 10.1181 5.88398 10.158C5.77431 10.2182 5.67052 10.2885 5.57398 10.368C5.45904 10.4306 5.35052 10.5043 5.24998 10.588C5.16 10.6955 5.08157 10.8122 5.01598 10.936C4.94309 11.0262 4.87818 11.1226 4.82198 11.224C4.77807 11.3619 4.74923 11.504 4.73598 11.648C4.70215 11.763 4.67872 11.8809 4.66598 12V14L4.66998 14.022V15.004C4.67104 15.5338 4.88222 16.0415 5.25718 16.4157C5.63214 16.7899 6.14024 17 6.66998 17H6.67598C6.93863 16.9995 7.19859 16.9473 7.44104 16.8463C7.68349 16.7453 7.90368 16.5975 8.08902 16.4114C8.27437 16.2253 8.42125 16.0046 8.52127 15.7617C8.6213 15.5189 8.67251 15.2587 8.67198 14.996L8.66798 13.672C10.108 13.2456 11.372 12.3661 12.2724 11.1641C13.1728 9.96217 13.6615 8.50185 13.666 7.00004ZM5.25998 20.58C4.97914 20.8586 4.7872 21.2142 4.70843 21.6018C4.62966 21.9894 4.66759 22.3917 4.81745 22.7578C4.9673 23.1238 5.22233 23.4372 5.5503 23.6584C5.87826 23.8795 6.26444 23.9984 6.65998 24C7.18992 23.9947 7.69782 23.7872 8.07998 23.42C8.45133 23.0407 8.65929 22.5309 8.65929 22C8.65929 21.4692 8.45133 20.9594 8.07998 20.58C7.69716 20.2232 7.1933 20.0248 6.66998 20.0248C6.14666 20.0248 5.6428 20.2232 5.25998 20.58Z" fill="white"/>
</svg>
