<svg width="101" height="101" viewBox="0 0 101 101" fill="none" xmlns="http://www.w3.org/2000/svg">
<path d="M73.9375 68.9243H27.0625C22.0513 68.8926 17.2286 67.0095 13.5218 63.6371C9.815 60.2647 7.48566 55.6411 6.98164 50.6552C6.47762 45.6693 7.8345 40.673 10.7914 36.627C13.7483 32.581 18.0965 29.7708 23 28.7368C24.3491 22.4447 27.8151 16.8055 32.8197 12.7602C37.8243 8.71483 44.0649 6.50806 50.5 6.50806C56.9351 6.50806 63.1756 8.71483 68.1803 12.7602C73.1849 16.8055 76.6509 22.4447 78 28.7368C82.9035 29.7708 87.2517 32.581 90.2086 36.627C93.1655 40.673 94.5223 45.6693 94.0183 50.6552C93.5143 55.6411 91.185 60.2647 87.4782 63.6371C83.7713 67.0095 78.9487 68.8926 73.9375 68.9243ZM50.5 12.6743C45.1676 12.6796 40.0207 14.6325 36.0269 18.1659C32.0332 21.6993 29.4676 26.5698 28.8125 31.8618L28.625 34.5493H25.9375C22.2079 34.6985 18.6903 36.3232 16.1585 39.0659C13.6268 41.8086 12.2883 45.4447 12.4375 49.1743C12.5867 52.9039 14.2113 56.4215 16.954 58.9533C19.6968 61.485 23.3329 62.8235 27.0625 62.6743H73.9375C77.6671 62.8235 81.3032 61.485 84.0459 58.9533C86.7887 56.4215 88.4133 52.9039 88.5625 49.1743C88.7117 45.4447 87.3732 41.8086 84.8414 39.0659C82.3097 36.3232 78.7921 34.6985 75.0625 34.5493H72.375L72.0625 31.9868C71.4382 26.6934 68.9028 21.8101 64.9324 18.254C60.9621 14.6979 55.8299 12.7138 50.5 12.6743ZM44.25 93.9243C43.7597 93.9302 43.276 93.8119 42.8437 93.5806C42.1077 93.2059 41.5499 92.5552 41.2923 91.7705C41.0346 90.9858 41.0981 90.1311 41.4687 89.3931L47.7187 76.8931C47.8839 76.4964 48.1292 76.138 48.4391 75.8403C48.7491 75.5427 49.1171 75.3122 49.5202 75.1632C49.9233 75.0142 50.3527 74.95 50.7818 74.9745C51.2108 74.999 51.6302 75.1117 52.0137 75.3056C52.3972 75.4995 52.7365 75.7704 53.0106 76.1014C53.2847 76.4324 53.4875 76.8164 53.6065 77.2293C53.7254 77.6422 53.758 78.0753 53.702 78.5013C53.646 78.9274 53.5028 79.3374 53.2812 79.7056L47.0312 92.2056C46.7715 92.7209 46.3742 93.1543 45.8833 93.4577C45.3924 93.7611 44.8271 93.9226 44.25 93.9243ZM63 93.9243C62.5097 93.9302 62.026 93.8119 61.5937 93.5806C60.8577 93.2059 60.2999 92.5552 60.0423 91.7705C59.7846 90.9858 59.8481 90.1311 60.2187 89.3931L66.4687 76.8931C66.6339 76.4964 66.8792 76.138 67.1891 75.8403C67.4991 75.5427 67.8671 75.3122 68.2702 75.1632C68.6733 75.0142 69.1027 74.95 69.5318 74.9745C69.9608 74.999 70.3802 75.1117 70.7637 75.3056C71.1472 75.4995 71.4865 75.7704 71.7606 76.1014C72.0347 76.4324 72.2375 76.8164 72.3565 77.2293C72.4754 77.6422 72.508 78.0753 72.452 78.5013C72.396 78.9274 72.2528 79.3374 72.0312 79.7056L65.7812 92.2056C65.5215 92.7209 65.1242 93.1543 64.6333 93.4577C64.1424 93.7611 63.5771 93.9226 63 93.9243ZM25.5 93.9243C25.0097 93.9302 24.526 93.8119 24.0937 93.5806C23.3577 93.2059 22.7999 92.5552 22.5423 91.7705C22.2846 90.9858 22.3481 90.1311 22.7187 89.3931L28.9687 76.8931C29.1339 76.4964 29.3792 76.138 29.6891 75.8403C29.9991 75.5427 30.3671 75.3122 30.7702 75.1632C31.1733 75.0142 31.6027 74.95 32.0318 74.9745C32.4608 74.999 32.8802 75.1117 33.2637 75.3056C33.6472 75.4995 33.9865 75.7704 34.2606 76.1014C34.5347 76.4324 34.7375 76.8164 34.8565 77.2293C34.9754 77.6422 35.008 78.0753 34.952 78.5013C34.896 78.9274 34.7528 79.3374 34.5312 79.7056L28.2812 92.2056C28.0215 92.7209 27.6242 93.1543 27.1333 93.4577C26.6424 93.7611 26.0771 93.9226 25.5 93.9243Z" fill="#5594C8"/>
</svg>
