<svg width="26" height="25" viewBox="0 0 26 25" fill="none" xmlns="http://www.w3.org/2000/svg">
<path d="M20.6496 2.70325L21.2024 3.25611C21.6319 3.6856 21.6319 4.3801 21.2024 4.80502L19.8728 6.13919L17.7665 4.03285L19.0961 2.70325C19.5256 2.27376 20.2201 2.27376 20.645 2.70325H20.6496ZM10.0859 11.718L16.2176 5.58176L18.3239 7.6881L12.1877 13.8198C12.0552 13.9523 11.8907 14.0482 11.7125 14.0985L9.03959 14.8615L9.80262 12.1886C9.85288 12.0104 9.94883 11.846 10.0813 11.7134L10.0859 11.718ZM17.5472 1.15434L8.53242 10.1645C8.13491 10.562 7.84706 11.0509 7.69628 11.5855L6.38953 16.1546C6.27987 16.5384 6.38496 16.9496 6.66824 17.2329C6.95152 17.5162 7.36274 17.6213 7.74654 17.5116L12.3156 16.2048C12.8548 16.0495 13.3436 15.7616 13.7366 15.3687L22.7514 6.3585C24.0353 5.0746 24.0353 2.9911 22.7514 1.70719L22.1985 1.15434C20.9146 -0.129571 18.8311 -0.129571 17.5472 1.15434ZM4.52078 2.93627C2.30021 2.93627 0.5 4.73649 0.5 6.95705V19.3849C0.5 21.6055 2.30021 23.4057 4.52078 23.4057H16.9486C19.1692 23.4057 20.9694 21.6055 20.9694 19.3849V14.2676C20.9694 13.6599 20.4805 13.171 19.8728 13.171C19.2652 13.171 18.7763 13.6599 18.7763 14.2676V19.3849C18.7763 20.3947 17.9584 21.2125 16.9486 21.2125H4.52078C3.51101 21.2125 2.69315 20.3947 2.69315 19.3849V6.95705C2.69315 5.94729 3.51101 5.12942 4.52078 5.12942H9.63813C10.2458 5.12942 10.7347 4.64053 10.7347 4.03285C10.7347 3.42516 10.2458 2.93627 9.63813 2.93627H4.52078Z" fill="#403230"/>
</svg>
