<svg width="26" height="25" viewBox="0 0 26 25" fill="none" xmlns="http://www.w3.org/2000/svg">
<path d="M6.05558 13.1942V7.63867H3.97225C3.41971 7.63867 2.88981 7.85817 2.49911 8.24887C2.10841 8.63957 1.88892 9.16947 1.88892 9.72201V22.222C1.88995 22.351 1.92688 22.4771 1.99557 22.5863C2.06425 22.6954 2.16198 22.7833 2.2778 22.8401C2.38939 22.8908 2.51241 22.9111 2.63438 22.8989C2.75636 22.8867 2.87292 22.8425 2.97225 22.7706L6.54864 20.1387H15.882C16.1452 20.1465 16.4072 20.1001 16.6517 20.0025C16.8963 19.9049 17.1182 19.7582 17.3038 19.5713C17.4893 19.3845 17.6345 19.1615 17.7304 18.9163C17.8263 18.6711 17.8708 18.4088 17.8611 18.1456V17.3609H10.2222C9.11718 17.3609 8.05737 16.9219 7.27597 16.1405C6.49457 15.3591 6.05558 14.2993 6.05558 13.1942Z" fill="#403230"/>
<path d="M22.0278 2.77783H10.2222C9.66971 2.77783 9.13981 2.99733 8.74911 3.38803C8.35841 3.77873 8.13892 4.30863 8.13892 4.86117V13.1945C8.13892 13.747 8.35841 14.2769 8.74911 14.6676C9.13981 15.0583 9.66971 15.2778 10.2222 15.2778H19.632L22.9514 17.8542C23.0501 17.9272 23.1663 17.9727 23.2883 17.9861C23.4103 17.9995 23.5337 17.9804 23.6459 17.9306C23.764 17.8743 23.8639 17.7858 23.9339 17.6752C24.004 17.5646 24.0413 17.4365 24.0417 17.3056V4.86117C24.042 4.32046 23.8321 3.80081 23.4563 3.41205C23.0804 3.02328 22.5682 2.79586 22.0278 2.77783Z" fill="#403230"/>
</svg>
