<svg width="25" height="25" viewBox="0 0 25 25" fill="none" xmlns="http://www.w3.org/2000/svg">
<g clip-path="url(#clip0_153_3084)">
<path d="M12.8601 1.35718V10.2143C12.8601 10.3811 12.9112 10.5443 13.0071 10.6838C13.103 10.8234 13.2396 10.9333 13.4001 11C13.5606 11.0667 13.738 11.0874 13.9107 11.0595C14.0833 11.0316 14.2437 10.9563 14.3721 10.8429L16.1601 9.26118L17.9481 10.8429C18.0765 10.9563 18.2369 11.0316 18.4095 11.0595C18.5822 11.0874 18.7597 11.0667 18.9202 11C19.0807 10.9333 19.2172 10.8234 19.3131 10.6838C19.4091 10.5443 19.4601 10.3811 19.4601 10.2143V1.47946C20.0817 1.55946 20.6337 1.70003 21.1485 1.94803C22.2209 2.469 23.0925 3.29994 23.6385 4.32175C23.9757 4.95032 24.1221 5.64061 24.1917 6.45661C24.2601 7.25318 24.2601 8.24289 24.2601 9.49089V15.5092C24.2601 16.7572 24.2601 17.7469 24.1917 18.5435C24.1221 19.3595 23.9757 20.0486 23.6397 20.6795C23.093 21.7006 22.221 22.5307 21.1485 23.0509C20.4861 23.372 19.7625 23.5115 18.9057 23.5778C18.0693 23.6429 17.0301 23.6429 15.7197 23.6429H9.40051C8.09011 23.6429 7.05091 23.6429 6.21451 23.5778C5.35771 23.5115 4.63411 23.372 3.97291 23.052C2.90027 22.5316 2.0282 21.701 1.48171 20.6795C1.14451 20.0486 0.998107 19.3595 0.928507 18.5435C0.860107 17.7469 0.860107 16.7572 0.860107 15.5092V9.49089C0.860107 8.24289 0.860107 7.25318 0.928507 6.45661C0.998107 5.64061 1.14451 4.95146 1.48051 4.32175C2.02732 3.30002 2.89983 2.46946 3.97291 1.94918C4.63291 1.62803 5.35771 1.48861 6.21451 1.42232C7.05091 1.35718 8.09011 1.35718 9.40051 1.35718H12.8601Z" fill="#DADADA"/>
</g>
<defs>
<clipPath id="clip0_153_3084">
<rect width="24" height="24" fill="white" transform="translate(0.800049 0.5)"/>
</clipPath>
</defs>
</svg>
