<svg width="25" height="25" viewBox="0 0 25 25" fill="none" xmlns="http://www.w3.org/2000/svg">
<g clip-path="url(#clip0_40_5111)">
<path d="M12.8601 1.35571V10.2129C12.8601 10.3796 12.9112 10.5428 13.0071 10.6824C13.103 10.8219 13.2396 10.9318 13.4001 10.9985C13.5606 11.0652 13.738 11.0859 13.9107 11.058C14.0833 11.0301 14.2437 10.9548 14.3721 10.8414L16.1601 9.25971L17.9481 10.8414C18.0765 10.9548 18.2369 11.0301 18.4095 11.058C18.5822 11.0859 18.7597 11.0652 18.9202 10.9985C19.0807 10.9318 19.2172 10.8219 19.3131 10.6824C19.4091 10.5428 19.4601 10.3796 19.4601 10.2129V1.478C20.0817 1.558 20.6337 1.69857 21.1485 1.94657C22.2209 2.46754 23.0925 3.29848 23.6385 4.32028C23.9757 4.94886 24.1221 5.63914 24.1917 6.45514C24.2601 7.25171 24.2601 8.24143 24.2601 9.48943V15.5077C24.2601 16.7557 24.2601 17.7454 24.1917 18.542C24.1221 19.358 23.9757 20.0471 23.6397 20.678C23.093 21.6991 22.221 22.5293 21.1485 23.0494C20.4861 23.3706 19.7625 23.51 18.9057 23.5763C18.0693 23.6414 17.0301 23.6414 15.7197 23.6414H9.40051C8.09011 23.6414 7.05091 23.6414 6.21451 23.5763C5.35771 23.51 4.63411 23.3706 3.97291 23.0506C2.90027 22.5301 2.0282 21.6996 1.48171 20.678C1.14451 20.0471 0.998107 19.358 0.928507 18.542C0.860107 17.7454 0.860107 16.7557 0.860107 15.5077V9.48943C0.860107 8.24143 0.860107 7.25171 0.928507 6.45514C0.998107 5.63914 1.14451 4.95 1.48051 4.32028C2.02732 3.29855 2.89983 2.46799 3.97291 1.94771C4.63291 1.62657 5.35771 1.48714 6.21451 1.42086C7.05091 1.35571 8.09011 1.35571 9.40051 1.35571H12.8601Z" fill="#FFCF88"/>
</g>
<defs>
<clipPath id="clip0_40_5111">
<rect width="24" height="24" fill="white" transform="translate(0.800049 0.498535)"/>
</clipPath>
</defs>
</svg>
