<svg width="15" height="24" viewBox="0 0 15 24" fill="none" xmlns="http://www.w3.org/2000/svg">
<path fill-rule="evenodd" clip-rule="evenodd" d="M9.62403 2.10086C8.94634 1.84453 8.224 1.7272 7.50003 1.75586C6.75757 1.7249 6.01681 1.84911 5.32506 2.12056C4.63331 2.392 4.00577 2.80472 3.48251 3.33236C2.95925 3.85999 2.55177 4.49095 2.28609 5.18494C2.02042 5.87892 1.90238 6.62069 1.93953 7.36286C1.95003 9.06986 2.63103 10.8384 3.49503 12.4329C4.09653 13.5429 4.82703 14.6409 5.58903 15.6669C4.48867 16.9756 3.3232 18.2282 2.09703 19.4199L1.74453 19.7559C1.46605 20.0291 1.30496 20.4 1.29543 20.79C1.2859 21.18 1.42869 21.5584 1.6935 21.8448C1.95831 22.1313 2.3243 22.3033 2.71384 22.3244C3.10338 22.3455 3.48582 22.214 3.78003 21.9579C4.27053 21.5019 4.74453 21.0279 5.21103 20.5494C5.85153 19.8924 6.65403 19.0344 7.50003 18.0519C8.34603 19.0359 9.15003 19.8924 9.78903 20.5494C10.614 21.3969 12.0465 23.2749 13.3395 21.8739C13.6094 21.5816 13.7522 21.1942 13.7364 20.7967C13.7207 20.3992 13.5477 20.0243 13.2555 19.7544L13.2525 19.7514H13.251C11.8971 18.4618 10.6152 17.0987 9.41103 15.6684C10.1852 14.6411 10.885 13.5599 11.505 12.4329C12.369 10.8384 13.05 9.06986 13.0605 7.36286C13.1178 6.23527 12.8161 5.11854 12.199 4.17311C11.5818 3.22768 10.6793 2.50219 9.62403 2.10086ZM7.50003 13.1904C8.00553 12.4674 8.47353 11.7309 8.86803 11.0034C9.64803 9.56336 10.0605 8.30336 10.0605 7.31936C10.0605 5.62136 8.86803 4.75436 7.41303 4.75436C5.95803 4.75436 4.93803 5.93036 4.93803 7.31936C4.93803 8.30486 5.35353 9.56486 6.13203 11.0034C6.52653 11.7309 6.99303 12.4674 7.50003 13.1904Z" fill="black"/>
</svg>
