<svg width="16" height="23" viewBox="0 0 16 23" fill="none" xmlns="http://www.w3.org/2000/svg">
<path fill-rule="evenodd" clip-rule="evenodd" d="M10.3745 1.71341C9.69677 1.45708 8.97443 1.33975 8.25045 1.36841C7.508 1.33745 6.76724 1.46166 6.07549 1.7331C5.38374 2.00455 4.7562 2.41727 4.23294 2.94491C3.70968 3.47254 3.3022 4.1035 3.03652 4.79749C2.77084 5.49147 2.65281 6.23324 2.68995 6.97541C2.70045 8.68241 3.38145 10.4509 4.24545 12.0454C4.84695 13.1554 5.57745 14.2534 6.33945 15.2794C5.2391 16.5882 4.07363 17.8407 2.84745 19.0324L2.49495 19.3684C2.21647 19.6416 2.05538 20.0126 2.04586 20.4025C2.03633 20.7925 2.17912 21.1709 2.44392 21.4574C2.70873 21.7438 3.07473 21.9159 3.46427 21.937C3.85381 21.9581 4.23625 21.8266 4.53045 21.5704C5.02095 21.1144 5.49495 20.6404 5.96145 20.1619C6.60195 19.5049 7.40445 18.6469 8.25045 17.6644C9.09645 18.6484 9.90045 19.5049 10.5395 20.1619C11.3645 21.0094 12.797 22.8874 14.09 21.4864C14.3598 21.1942 14.5026 20.8067 14.4869 20.4093C14.4711 20.0118 14.2981 19.6368 14.006 19.3669L14.003 19.3639H14.0015C12.6476 18.0743 11.3656 16.7113 10.1615 15.2809C10.9356 14.2537 11.6354 13.1724 12.2555 12.0454C13.1195 10.4509 13.8005 8.68241 13.811 6.97541C13.8682 5.84782 13.5666 4.73109 12.9494 3.78566C12.3322 2.84022 11.4298 2.11474 10.3745 1.71341ZM8.25045 12.8029C8.75595 12.0799 9.22395 11.3434 9.61845 10.6159C10.3985 9.17591 10.811 7.91591 10.811 6.93191C10.811 5.23391 9.61845 4.36691 8.16345 4.36691C6.70845 4.36691 5.68845 5.54291 5.68845 6.93191C5.68845 7.91741 6.10395 9.17741 6.88245 10.6159C7.27695 11.3434 7.74345 12.0799 8.25045 12.8029Z" fill="white"/>
</svg>
