<svg width="11" height="16" viewBox="0 0 11 16" fill="none" xmlns="http://www.w3.org/2000/svg">
<path fill-rule="evenodd" clip-rule="evenodd" d="M1.30508 1.82608C1.51602 1.6154 1.80196 1.49707 2.10008 1.49707C2.39821 1.49707 2.68415 1.6154 2.89508 1.82608L8.89508 7.82608C9.10576 8.03702 9.22409 8.32295 9.22409 8.62108C9.22409 8.91921 9.10576 9.20514 8.89508 9.41608L2.89508 15.4161C2.79209 15.5266 2.66789 15.6153 2.52989 15.6768C2.39189 15.7382 2.24292 15.7713 2.09187 15.774C1.94081 15.7766 1.79077 15.7488 1.65069 15.6923C1.51061 15.6357 1.38336 15.5515 1.27653 15.4446C1.1697 15.3378 1.08548 15.2106 1.0289 15.0705C0.972319 14.9304 0.944531 14.7804 0.947197 14.6293C0.949862 14.4782 0.982925 14.3293 1.04441 14.1913C1.1059 14.0533 1.19455 13.9291 1.30508 13.8261L6.51008 8.62108L1.30508 3.41608C1.09441 3.20514 0.976074 2.91921 0.976074 2.62108C0.976074 2.32295 1.09441 2.03702 1.30508 1.82608Z" fill="#403230"/>
</svg>
