<svg width="25" height="25" viewBox="0 0 25 25" fill="none" xmlns="http://www.w3.org/2000/svg">
<path d="M22.2652 10.78L2.91719 1.34096C2.73125 1.25035 2.52532 1.20855 2.31878 1.21948C2.11223 1.2304 1.91187 1.29371 1.73653 1.40343C1.5612 1.51315 1.41667 1.66568 1.31654 1.84666C1.21641 2.02764 1.16398 2.23113 1.16419 2.43796V2.47296C1.16428 2.63647 1.18443 2.79936 1.22419 2.95796L3.08019 10.382C3.10506 10.4809 3.15959 10.5698 3.23645 10.6368C3.31331 10.7038 3.40882 10.7458 3.51019 10.757L11.6672 11.664C11.8029 11.6803 11.9279 11.7458 12.0186 11.848C12.1093 11.9503 12.1594 12.0823 12.1594 12.219C12.1594 12.3557 12.1093 12.4876 12.0186 12.5899C11.9279 12.6922 11.8029 12.7576 11.6672 12.774L3.51019 13.681C3.40882 13.6922 3.31331 13.7341 3.23645 13.8011C3.15959 13.8681 3.10506 13.9571 3.08019 14.056L1.22419 21.479C1.18443 21.6376 1.16428 21.8005 1.16419 21.964V21.999C1.16415 22.2057 1.21671 22.4091 1.31691 22.5899C1.4171 22.7708 1.56165 22.9232 1.73696 23.0328C1.91226 23.1424 2.11257 23.2056 2.31903 23.2165C2.52549 23.2273 2.73133 23.1855 2.91719 23.095L22.2642 13.656C22.5336 13.5245 22.7607 13.32 22.9196 13.0658C23.0784 12.8115 23.1626 12.5178 23.1626 12.218C23.1626 11.9182 23.0784 11.6244 22.9196 11.3702C22.7607 11.1159 22.5346 10.9114 22.2652 10.78Z" fill="#403230"/>
</svg>
