<svg width="16" height="16" viewBox="0 0 16 16" fill="none" xmlns="http://www.w3.org/2000/svg">
<path d="M6.10195 3.60533C6.94662 2.09066 7.36862 1.33333 7.99995 1.33333C8.63129 1.33333 9.05329 2.09066 9.89795 3.60533L10.1166 3.99733C10.3566 4.42799 10.4766 4.64333 10.6633 4.78533C10.85 4.92733 11.0833 4.97999 11.55 5.08533L11.974 5.18133C13.614 5.55266 14.4333 5.738 14.6286 6.36533C14.8233 6.992 14.2646 7.646 13.1466 8.95333L12.8573 9.29133C12.54 9.66266 12.3806 9.84866 12.3093 10.078C12.238 10.308 12.262 10.556 12.31 11.0513L12.354 11.5027C12.5226 13.2473 12.6073 14.1193 12.0966 14.5067C11.586 14.894 10.818 14.5407 9.28329 13.834L8.88529 13.6513C8.44929 13.45 8.23129 13.35 7.99995 13.35C7.76862 13.35 7.55062 13.45 7.11462 13.6513L6.71729 13.834C5.18195 14.5407 4.41395 14.894 3.90395 14.5073C3.39262 14.1193 3.47729 13.2473 3.64595 11.5027L3.68995 11.052C3.73795 10.556 3.76195 10.308 3.68995 10.0787C3.61929 9.84866 3.45995 9.66266 3.14262 9.292L2.85329 8.95333C1.73529 7.64666 1.17662 6.99266 1.37129 6.36533C1.56595 5.738 2.38662 5.55199 4.02662 5.18133L4.45062 5.08533C4.91662 4.97999 5.14929 4.92733 5.33662 4.78533C5.52395 4.64333 5.64329 4.42799 5.88329 3.99733L6.10195 3.60533Z" fill="#403230"/>
</svg>
