<svg width="101" height="101" viewBox="0 0 101 101" fill="none" xmlns="http://www.w3.org/2000/svg">
<path fill-rule="evenodd" clip-rule="evenodd" d="M50.0312 5.63696C50.86 5.63696 51.6549 5.9662 52.2409 6.55225C52.827 7.13831 53.1562 7.93316 53.1562 8.76196V12.9286C53.1562 13.7574 52.827 14.5523 52.2409 15.1383C51.6549 15.7244 50.86 16.0536 50.0312 16.0536C49.2024 16.0536 48.4076 15.7244 47.8215 15.1383C47.2355 14.5523 46.9062 13.7574 46.9062 12.9286V8.76196C46.9062 7.93316 47.2355 7.13831 47.8215 6.55225C48.4076 5.9662 49.2024 5.63696 50.0312 5.63696ZM18.3604 18.7578C18.9463 18.1726 19.7406 17.8439 20.5687 17.8439C21.3969 17.8439 22.1911 18.1726 22.7771 18.7578L24.4146 20.3911C24.9841 20.9802 25.2994 21.7695 25.2927 22.5888C25.286 23.4082 24.9577 24.1922 24.3786 24.7718C23.7994 25.3515 23.0158 25.6805 22.1964 25.688C21.3771 25.6955 20.5875 25.3809 19.9979 24.812L18.3604 23.1745C17.7752 22.5885 17.4465 21.7943 17.4465 20.9661C17.4465 20.138 17.7752 19.3437 18.3604 18.7578ZM81.7021 18.7578C82.2873 19.3437 82.616 20.138 82.616 20.9661C82.616 21.7943 82.2873 22.5885 81.7021 23.1745L80.0646 24.812C79.4722 25.364 78.6886 25.6645 77.8791 25.6502C77.0695 25.6359 76.297 25.3079 75.7245 24.7354C75.1519 24.1628 74.824 23.3904 74.8097 22.5808C74.7954 21.7712 75.0959 20.9877 75.6479 20.3953L77.2854 18.7578C77.8713 18.1726 78.6656 17.8439 79.4937 17.8439C80.3219 17.8439 81.1161 18.1726 81.7021 18.7578ZM50.0312 28.5536C44.2296 28.5536 38.6656 30.8583 34.5633 34.9607C30.4609 39.063 28.1562 44.627 28.1562 50.4286C28.1562 56.2302 30.4609 61.7942 34.5633 65.8966C38.6656 69.9989 44.2296 72.3036 50.0312 72.3036C55.8328 72.3036 61.3968 69.9989 65.4992 65.8966C69.6015 61.7942 71.9062 56.2302 71.9062 50.4286C71.9062 44.627 69.6015 39.063 65.4992 34.9607C61.3968 30.8583 55.8328 28.5536 50.0312 28.5536ZM21.9062 50.4286C21.9062 42.9694 24.8694 35.8157 30.1439 30.5413C35.4183 25.2668 42.572 22.3036 50.0312 22.3036C57.4904 22.3036 64.6441 25.2668 69.9186 30.5413C75.1931 35.8157 78.1562 42.9694 78.1562 50.4286C78.1562 57.8878 75.1931 65.0415 69.9186 70.316C64.6441 75.5905 57.4904 78.5536 50.0312 78.5536C42.572 78.5536 35.4183 75.5905 30.1439 70.316C24.8694 65.0415 21.9062 57.8878 21.9062 50.4286ZM5.23956 50.4286C5.23956 49.5998 5.5688 48.805 6.15485 48.2189C6.74091 47.6329 7.53576 47.3036 8.36456 47.3036H12.5312C13.36 47.3036 14.1549 47.6329 14.7409 48.2189C15.327 48.805 15.6562 49.5998 15.6562 50.4286C15.6562 51.2574 15.327 52.0523 14.7409 52.6383C14.1549 53.2244 13.36 53.5536 12.5312 53.5536H8.36456C7.53576 53.5536 6.74091 53.2244 6.15485 52.6383C5.5688 52.0523 5.23956 51.2574 5.23956 50.4286ZM84.4062 50.4286C84.4062 49.5998 84.7355 48.805 85.3215 48.2189C85.9076 47.6329 86.7024 47.3036 87.5312 47.3036H91.6979C92.5267 47.3036 93.3216 47.6329 93.9076 48.2189C94.4937 48.805 94.8229 49.5998 94.8229 50.4286C94.8229 51.2574 94.4937 52.0523 93.9076 52.6383C93.3216 53.2244 92.5267 53.5536 91.6979 53.5536H87.5312C86.7024 53.5536 85.9076 53.2244 85.3215 52.6383C84.7355 52.0523 84.4062 51.2574 84.4062 50.4286ZM75.6479 76.0453C76.2338 75.4601 77.0281 75.1314 77.8562 75.1314C78.6843 75.1314 79.4786 75.4601 80.0646 76.0453L81.7021 77.6828C82.0091 77.9689 82.2553 78.3139 82.4261 78.6972C82.5969 79.0806 82.6888 79.4944 82.6962 79.9139C82.7036 80.3335 82.6264 80.7503 82.4692 81.1395C82.3121 81.5286 82.0781 81.882 81.7814 82.1788C81.4846 82.4755 81.1312 82.7095 80.7421 82.8666C80.3529 83.0238 79.9361 83.101 79.5165 83.0936C79.097 83.0862 78.6832 82.9943 78.2998 82.8235C77.9165 82.6527 77.5715 82.4065 77.2854 82.0995L75.6479 80.462C75.0627 79.876 74.734 79.0817 74.734 78.2536C74.734 77.4255 75.0627 76.6312 75.6479 76.0453ZM24.4146 76.0453C24.9998 76.6312 25.3285 77.4255 25.3285 78.2536C25.3285 79.0817 24.9998 79.876 24.4146 80.462L22.7771 82.0995C22.491 82.4065 22.146 82.6527 21.7626 82.8235C21.3793 82.9943 20.9655 83.0862 20.5459 83.0936C20.1263 83.101 19.7095 83.0238 19.3204 82.8666C18.9313 82.7095 18.5778 82.4755 18.2811 82.1788C17.9843 81.882 17.7504 81.5286 17.5932 81.1395C17.436 80.7503 17.3589 80.3335 17.3663 79.9139C17.3737 79.4944 17.4655 79.0806 17.6363 78.6972C17.8071 78.3139 18.0534 77.9689 18.3604 77.6828L19.9937 76.0453C20.2839 75.7549 20.6285 75.5245 21.0078 75.3674C21.3871 75.2102 21.7936 75.1293 22.2041 75.1293C22.6147 75.1293 23.0212 75.2102 23.4005 75.3674C23.7798 75.5245 24.1244 75.7549 24.4146 76.0453ZM50.0312 84.8036C50.86 84.8036 51.6549 85.1329 52.2409 85.7189C52.827 86.305 53.1562 87.0998 53.1562 87.9286V92.0953C53.1562 92.9241 52.827 93.719 52.2409 94.305C51.6549 94.8911 50.86 95.2203 50.0312 95.2203C49.2024 95.2203 48.4076 94.8911 47.8215 94.305C47.2355 93.719 46.9062 92.9241 46.9062 92.0953V87.9286C46.9062 87.0998 47.2355 86.305 47.8215 85.7189C48.4076 85.1329 49.2024 84.8036 50.0312 84.8036Z" fill="#FFCF88"/>
</svg>
