<svg width="31" height="34" viewBox="0 0 31 34" fill="none" xmlns="http://www.w3.org/2000/svg">
<path d="M15.9719 0H3.59438C2.7737 0 1.98663 0.334935 1.40632 0.931124C0.826014 1.52731 0.5 2.33592 0.5 3.17906V28.6115C0.5 29.4546 0.826014 30.2632 1.40632 30.8594C1.98663 31.4556 2.7737 31.7906 3.59438 31.7906H14.4247C13.7904 31.3932 13.187 30.9004 12.6609 30.36C11.6888 29.4413 10.903 28.3343 10.3486 27.1026C9.7942 25.871 9.48216 24.5389 9.4304 23.183C9.37864 21.827 9.58819 20.474 10.047 19.2015C10.5058 17.929 11.2048 16.7622 12.1039 15.7681C15.4923 11.9215 21.124 11.3333 25.255 14.3058V9.53717L15.9719 0ZM14.4247 11.1267V2.38429L22.9342 11.1267H14.4247ZM25.7347 26.863C27.7924 23.5091 26.8022 19.0743 23.5686 16.9762C20.304 14.8621 15.9719 15.8953 13.9451 19.2015C11.8718 22.5554 12.8775 26.9743 16.1111 29.0884C18.37 30.5666 21.2478 30.5666 23.5222 29.1201L28.3494 34L30.5 31.7906L25.7347 26.863ZM19.8399 27.022C18.814 27.022 17.8302 26.6033 17.1048 25.8581C16.3794 25.1128 15.9719 24.1021 15.9719 23.0482C15.9719 21.9942 16.3794 20.9835 17.1048 20.2382C17.8302 19.493 18.814 19.0743 19.8399 19.0743C20.8657 19.0743 21.8496 19.493 22.5749 20.2382C23.3003 20.9835 23.7078 21.9942 23.7078 23.0482C23.7078 24.1021 23.3003 25.1128 22.5749 25.8581C21.8496 26.6033 20.8657 27.022 19.8399 27.022Z" fill="#403230"/>
</svg>
