<svg width="17" height="4" viewBox="0 0 17 4" fill="none" xmlns="http://www.w3.org/2000/svg">
<path d="M10 2.40808C10 2.70475 9.91203 2.99476 9.7472 3.24144C9.58238 3.48811 9.34812 3.68037 9.07403 3.7939C8.79994 3.90743 8.49834 3.93714 8.20737 3.87926C7.91639 3.82138 7.64912 3.67852 7.43934 3.46874C7.22956 3.25896 7.0867 2.99169 7.02882 2.70072C6.97094 2.40974 7.00065 2.10815 7.11418 1.83406C7.22771 1.55997 7.41997 1.3257 7.66665 1.16088C7.91332 0.996055 8.20333 0.908081 8.5 0.908081C8.89783 0.908081 9.27936 1.06612 9.56066 1.34742C9.84196 1.62873 10 2.01026 10 2.40808ZM2.125 0.908081C1.82833 0.908081 1.53832 0.996055 1.29165 1.16088C1.04497 1.3257 0.852713 1.55997 0.739181 1.83406C0.62565 2.10815 0.595945 2.40974 0.653823 2.70072C0.711701 2.99169 0.854562 3.25896 1.06434 3.46874C1.27412 3.67852 1.54139 3.82138 1.83237 3.87926C2.12334 3.93714 2.42494 3.90743 2.69903 3.7939C2.97311 3.68037 3.20738 3.48811 3.37221 3.24144C3.53703 2.99476 3.625 2.70475 3.625 2.40808C3.625 2.01026 3.46697 1.62873 3.18566 1.34742C2.90436 1.06612 2.52283 0.908081 2.125 0.908081ZM14.875 0.908081C14.5783 0.908081 14.2883 0.996055 14.0416 1.16088C13.795 1.3257 13.6027 1.55997 13.4892 1.83406C13.3757 2.10815 13.3459 2.40974 13.4038 2.70072C13.4617 2.99169 13.6046 3.25896 13.8143 3.46874C14.0241 3.67852 14.2914 3.82138 14.5824 3.87926C14.8733 3.93714 15.1749 3.90743 15.449 3.7939C15.7231 3.68037 15.9574 3.48811 16.1222 3.24144C16.287 2.99476 16.375 2.70475 16.375 2.40808C16.375 2.01026 16.217 1.62873 15.9357 1.34742C15.6544 1.06612 15.2728 0.908081 14.875 0.908081Z" fill="#403230"/>
</svg>
