<svg width="31" height="34" viewBox="0 0 31 34" fill="none" xmlns="http://www.w3.org/2000/svg">
<path d="M7.25 0.498597C9.375 0.498597 11.0315 1.4426 12.2195 3.3306C13.4075 5.2186 14.001 7.2746 14 9.4986C14 10.5236 13.8935 11.4986 13.6805 12.4236C13.4675 13.3486 13.224 14.1736 12.95 14.8986L2.2625 17.0361C1.8875 16.3111 1.5 15.3051 1.1 14.0181C0.7 12.7311 0.5 11.2246 0.5 9.4986C0.5 6.9236 1.1375 4.7796 2.4125 3.0666C3.6875 1.3536 5.3 0.497597 7.25 0.498597ZM9.3125 25.9986C7.5375 25.9986 6.1565 25.3801 5.1695 24.1431C4.1825 22.9061 3.626 21.4746 3.5 19.8486L13.175 17.8986C13.375 18.3236 13.5625 18.8051 13.7375 19.3431C13.9125 19.8811 14 20.4371 14 21.0111C14 22.4361 13.556 23.6236 12.668 24.5736C11.78 25.5236 10.6605 25.9986 9.3125 25.9986ZM23.75 7.9986C25.7 7.9986 27.3125 8.8551 28.5875 10.5681C29.8625 12.2811 30.5 14.4246 30.5 16.9986C30.5 18.7236 30.3 20.2301 29.9 21.5181C29.5 22.8061 29.1125 23.8121 28.7375 24.5361L18.05 22.3986C17.775 21.6736 17.5315 20.8486 17.3195 19.9236C17.1075 18.9986 17.001 18.0236 17 16.9986C17 14.7736 17.594 12.7176 18.782 10.8306C19.97 8.9436 21.626 7.9996 23.75 7.9986ZM21.6875 33.4986C20.3375 33.4986 19.2185 33.0236 18.3305 32.0736C17.4425 31.1236 16.999 29.9361 17 28.5111C17 27.9361 17.0875 27.3801 17.2625 26.8431C17.4375 26.3061 17.625 25.8246 17.825 25.3986L27.4625 27.3486C27.3375 28.9736 26.7875 30.4051 25.8125 31.6431C24.8375 32.8811 23.4625 33.4996 21.6875 33.4986Z" fill="#403230"/>
</svg>
