<svg width="25" height="26" viewBox="0 0 25 26" fill="none" xmlns="http://www.w3.org/2000/svg">
<g clip-path="url(#clip0_68_4543)">
<path d="M7.40474 18.7796L9.50117 18.1748L22.1238 5.40101C22.2234 5.29898 22.2788 5.16189 22.2781 5.01933C22.2774 4.87677 22.2207 4.7402 22.1202 4.63911L21.3643 3.87482C21.3154 3.82463 21.2571 3.78467 21.1926 3.75727C21.1281 3.72988 21.0589 3.7156 20.9888 3.71526C20.9188 3.71493 20.8494 3.72855 20.7847 3.75533C20.7199 3.78212 20.6612 3.82152 20.6119 3.87125L8.0226 16.6117L7.40474 18.7796ZM22.8607 2.36054L23.6166 3.12601C24.6595 4.18196 24.669 5.88554 23.6357 6.93077L10.6285 20.0951L6.1476 21.3855C5.87402 21.4621 5.58124 21.427 5.3335 21.288C5.08577 21.1489 4.90331 20.9173 4.82617 20.6439C4.76876 20.4473 4.76794 20.2385 4.82379 20.0415L6.12736 15.4701L19.1 2.3403C19.3467 2.09191 19.6403 1.89513 19.9638 1.76143C20.2874 1.62773 20.6343 1.55978 20.9843 1.56156C21.3344 1.56333 21.6806 1.63479 22.0027 1.77176C22.3249 1.90873 22.6165 2.10967 22.8607 2.36054ZM9.1476 3.73316C9.73807 3.73316 10.2166 4.21768 10.2166 4.8153C10.2176 4.95657 10.1907 5.09664 10.1374 5.2275C10.0842 5.35837 10.0057 5.47745 9.90642 5.57796C9.80713 5.67846 9.68901 5.7584 9.55881 5.81322C9.4286 5.86804 9.28887 5.89666 9.1476 5.89744H4.87141C3.69045 5.89744 2.73331 6.86649 2.73331 8.06054V21.0439C2.73331 22.2391 3.69045 23.2082 4.87141 23.2082H17.7C18.8809 23.2082 19.8393 22.2391 19.8393 21.0439V16.7165C19.8393 16.1189 20.3178 15.6343 20.9083 15.6343C21.4988 15.6343 21.9774 16.1189 21.9774 16.7177V21.0439C21.9774 23.4343 20.0619 25.3724 17.7 25.3724H4.87141C2.5095 25.3724 0.595215 23.4343 0.595215 21.0439V8.06054C0.595215 5.67125 2.5095 3.73316 4.87141 3.73316H9.1476Z" fill="#FBFBFB"/>
</g>
<defs>
<clipPath id="clip0_68_4543">
<rect width="25" height="25" fill="white" transform="translate(0 0.974609)"/>
</clipPath>
</defs>
</svg>
