<svg width="16" height="17" viewBox="0 0 16 17" fill="none" xmlns="http://www.w3.org/2000/svg">
<mask id="mask0_32_3687" style="mask-type:luminance" maskUnits="userSpaceOnUse" x="0" y="0" width="17" height="17">
<path d="M16.0059 0.67334H0.00585938V16.6733H16.0059V0.67334Z" fill="white"/>
</mask>
<g mask="url(#mask0_32_3687)">
<path d="M16.0062 8.85515C16.0062 8.28787 15.9542 7.74243 15.8578 7.21875H8.16943V10.3133H12.5627C12.3735 11.3133 11.7984 12.1606 10.9338 12.7279V14.7351H13.572C15.1156 13.3424 16.0062 11.2915 16.0062 8.85515Z" fill="#4285F4"/>
<path d="M8.16953 16.6734C10.3736 16.6734 12.2215 15.957 13.5721 14.7352L10.9339 12.7279C10.2029 13.2079 9.26782 13.4915 8.16953 13.4915C6.04333 13.4915 4.24374 12.0842 3.60178 10.1934H0.874512V12.2661C2.21778 14.8806 4.97843 16.6734 8.16953 16.6734Z" fill="#34A853"/>
<path d="M3.60137 10.1933C3.4381 9.71329 3.34537 9.20057 3.34537 8.67329C3.34537 8.14601 3.4381 7.63329 3.60137 7.15329V5.08057H0.874104C0.321288 6.16057 0.00585938 7.38241 0.00585938 8.67329C0.00585938 9.96417 0.321288 11.186 0.874104 12.266L3.60137 10.1933Z" fill="#FBBC04"/>
<path d="M8.16953 3.85518C9.36798 3.85518 10.4441 4.25878 11.2901 5.0515L13.6315 2.75694C12.2178 1.46606 10.3699 0.67334 8.16953 0.67334C4.97843 0.67334 2.21778 2.46606 0.874512 5.08062L3.60178 7.15334C4.24374 5.26246 6.04333 3.85518 8.16953 3.85518Z" fill="#E94235"/>
</g>
</svg>
